<svg width="0" height="0" class="hidden">
  <symbol version="1.1" id="chisel" xmlns="http://www.w3.org/2000/svg" xmlns:xlink="http://www.w3.org/1999/xlink" x="0px" y="0px" enable-background="new 0 0 1000 1000" xml:space="preserve" viewBox="0 0 1000 1000">
    <path fill="#FFFFFF" opacity="1.000000" stroke="none" d="
M1000.653748,131.882538 
	C1001.000000,420.094513 1000.988525,708.189026 1001.114868,996.283447 
	C1001.116699,1000.405823 1000.204712,1001.107788 996.218811,1001.106201 
	C705.791687,1000.989807 415.364502,1001.000000 124.468658,1001.000000 
	C123.942673,998.676514 125.864273,999.052368 127.168701,998.799988 
	C150.288406,994.326355 169.631699,983.394958 186.318054,966.639526 
	C275.572632,877.015686 365.118958,787.682312 454.534088,698.218262 
	C462.437012,690.311035 461.726227,692.128540 467.983917,697.367310 
	C490.733856,716.412476 527.208740,714.695374 547.425781,688.105896 
	C562.721130,667.989319 560.708862,636.258057 542.471985,617.732910 
	C528.910583,603.957275 515.141174,590.386780 501.493622,576.695862 
	C496.590088,571.776733 496.442993,571.049988 501.531097,566.316406 
	C528.255249,541.453918 557.544800,520.657043 592.729492,509.291504 
	C603.568848,505.790161 614.710022,503.925476 626.008362,502.863617 
	C628.329224,502.645508 630.693542,502.649200 632.970398,503.255066 
	C638.746338,504.792084 643.053467,502.862152 647.256653,498.652283 
	C748.753113,396.994904 850.353210,295.440918 951.911682,193.845306 
	C958.065613,187.689087 962.770203,180.348801 967.862183,173.355774 
	C977.181946,160.556686 986.865967,148.033768 996.285339,135.311661 
	C997.364075,133.854813 998.295959,132.184692 1000.653748,131.882538 
z"></path>
    <path fill="#FFFFFF" opacity="1.000000" stroke="none" d="
M1.349679,874.102844 
	C1.000000,584.572693 1.011443,295.145355 0.885383,5.718091 
	C0.883589,1.599023 1.790468,0.891997 5.779617,0.893615 
	C293.540619,1.010344 581.301636,1.000000 869.531372,1.000000 
	C870.438354,4.040915 867.778809,4.846473 866.063721,6.148275 
	C849.607727,18.638998 832.873718,30.757887 816.376343,43.194515 
	C812.775818,45.908779 809.373230,48.810432 806.181396,52.003471 
	C705.580139,152.642853 604.984070,253.287460 504.251068,353.794891 
	C499.373932,358.661102 497.425140,363.389008 498.834351,370.217010 
	C500.190125,376.785919 498.483856,383.495789 497.451141,390.031738 
	C493.937439,412.269958 484.821564,432.414673 473.322815,451.523956 
	C462.638000,469.280579 449.920166,485.541290 435.623993,500.539398 
	C430.891663,505.504059 430.209473,505.396393 425.232422,500.434509 
	C411.898193,487.140930 398.620087,473.791046 385.278442,460.504944 
	C363.548462,438.865417 329.333130,438.518219 307.527924,460.150726 
	C297.756592,469.844604 292.584991,481.794037 292.078522,495.936371 
	C291.508667,511.847687 296.289856,525.431335 307.151794,536.920227 
	C309.622192,539.533203 309.629517,541.750122 307.042206,544.163940 
	C305.704071,545.412354 304.455048,546.759766 303.159058,548.055847 
	C212.907684,638.308350 122.674454,728.579041 32.384365,818.792786 
	C18.315796,832.849487 9.358255,849.633057 4.563601,868.797791 
	C4.060101,870.810425 4.312326,873.285156 1.349679,874.102844 
z"></path>
    <path fill="#C5853A" opacity="1.000000" stroke="none" d="
M1.000000,874.468628 
	C1.981815,873.634460 2.753089,873.022522 2.934757,871.950928 
	C5.525729,856.668396 11.800603,842.987427 20.829002,830.476196 
	C23.234127,827.143311 25.651291,823.840332 28.567043,820.924866 
	C120.609421,728.889954 212.646255,636.849487 304.702087,544.828125 
	C306.105743,543.424927 307.737091,542.249451 309.323059,540.916443 
	C299.971069,531.693848 293.377625,521.661743 291.599426,509.123199 
	C289.274719,492.731232 291.608215,477.356689 302.422302,464.079224 
	C314.429871,449.336365 330.036682,442.298828 348.944611,443.067566 
	C362.471588,443.617523 374.581848,448.423828 384.317657,457.928375 
	C399.817017,473.059509 414.970795,488.544647 430.404907,504.014618 
	C442.693634,492.405701 452.814972,479.240265 462.559143,465.799194 
	C474.424652,449.431854 483.901093,431.687561 490.566010,412.616516 
	C493.946472,402.943604 496.481750,392.964447 497.161987,382.541138 
	C497.537964,376.780304 498.242676,371.158478 497.052368,365.413818 
	C496.205597,361.326996 498.133514,358.253265 501.065002,355.346588 
	C521.775452,334.811401 542.355591,314.144806 562.978699,293.521515 
	C643.939270,212.560135 724.883240,131.582108 805.882690,50.659573 
	C816.141907,40.410042 828.621033,32.921234 839.990051,24.049063 
	C849.785645,16.404673 859.852234,9.107550 869.899536,1.328456 
	C872.700012,1.000000 875.400024,1.000000 878.550049,1.000000 
	C881.069641,2.103397 882.800903,3.612292 884.456787,5.269679 
	C921.815613,42.662685 959.196350,80.033875 996.568909,117.413216 
	C998.091370,118.935860 999.770020,120.342224 1000.781921,122.723282 
	C1001.000000,125.700012 1001.000000,128.400024 1001.000000,131.550018 
	C995.049927,137.470459 990.895081,144.399048 986.144470,150.795441 
	C969.454773,173.267365 952.611145,195.400818 932.576111,215.272018 
	C837.213379,309.854980 742.424561,405.016968 647.559021,500.100037 
	C642.986328,504.683258 638.474060,505.873138 632.448792,504.318115 
	C626.549988,502.795654 620.509949,504.459198 614.753052,505.346527 
	C595.728455,508.279083 577.741150,514.770142 560.916443,524.093750 
	C545.731934,532.508362 531.341675,542.167053 518.026794,553.398254 
	C511.202515,559.154541 504.276917,564.767639 498.056641,571.578491 
	C513.148987,586.663269 528.540222,601.408997 543.175659,616.870056 
	C555.640564,630.038147 560.932434,645.797302 558.174622,664.262756 
	C555.442505,682.556030 545.812683,696.270630 530.165466,704.645508 
	C512.221130,714.249756 493.385223,714.032959 475.177307,703.752625 
	C470.100677,700.886292 465.635498,697.344238 461.088135,692.623169 
	C459.740845,694.243591 458.581848,695.885376 457.181671,697.286133 
	C365.053009,789.450317 273.014160,881.704834 180.650436,973.632874 
	C165.289642,988.921326 145.888718,997.218872 124.184532,1000.638672 
	C113.979103,1001.000000 103.958214,1001.000000 93.468658,1001.000000 
	C74.709160,999.755920 58.582039,992.776306 44.013260,982.049194 
	C21.065283,965.152405 6.565548,942.813416 1.222205,914.304810 
	C1.000000,900.979126 1.000000,887.958191 1.000000,874.468628 
z"></path>
    <path fill="#FFFFFF" opacity="1.000000" stroke="none" d="
M1001.000000,122.531334 
	C1000.232361,122.397217 999.392700,121.866501 998.707336,121.181328 
	C958.860291,81.343887 919.026062,41.493637 879.095276,1.322307 
	C918.429077,1.000000 957.858276,1.046091 997.286865,0.913536 
	C1000.482117,0.902794 1001.083618,1.729014 1001.074768,4.773927 
	C1000.961609,43.869923 1001.000000,82.966362 1001.000000,122.531334 
z"></path>
    <path fill="#FFFFFF" opacity="1.000000" stroke="none" d="
M1.000000,914.468628 
	C4.594671,916.673706 3.807983,921.049438 4.871371,924.616150 
	C9.185975,939.087891 16.271421,951.880493 25.883827,963.528381 
	C35.369911,975.023254 46.964756,983.687866 60.022923,990.402405 
	C70.216843,995.644104 81.106377,999.142029 92.813782,1000.637451 
	C63.406013,1001.000000 33.811798,1000.949158 4.218409,1001.082336 
	C1.399514,1001.095032 0.912140,1000.450928 0.924338,997.733582 
	C1.048228,970.135315 1.000000,942.536194 1.000000,914.468628 
z"></path>
    <path fill="#FFFFFF" opacity="1.000000" stroke="none" d="
M26.984085,934.916626 
	C22.334015,924.723755 19.197235,914.592163 17.865681,903.709900 
	C15.212596,882.027466 20.703972,862.502136 31.993748,844.294861 
	C34.660896,839.993408 37.653671,835.849182 41.268627,832.234070 
	C133.170792,740.327637 225.088928,648.437195 316.917389,556.457153 
	C319.944672,553.424805 321.539429,552.836365 324.931244,556.251648 
	C365.088318,596.686523 405.396454,636.971985 445.805664,677.155090 
	C448.884674,680.216919 448.983917,681.679199 445.840149,684.816406 
	C353.721039,776.741272 261.795868,868.860657 169.598999,960.707397 
	C157.556076,972.704651 142.334183,979.520020 125.599945,983.063049 
	C105.505592,987.317505 86.320740,984.279724 68.247543,975.459961 
	C51.921772,967.492859 38.675354,955.620483 29.762079,939.420532 
	C28.971354,937.983337 27.969553,936.662292 26.984085,934.916626 
z"></path>
    <path fill="#FFFFFF" opacity="1.000000" stroke="none" d="
M693.750000,186.749985 
	C732.759827,147.740402 771.564941,109.025787 810.195557,70.137848 
	C813.366028,66.946297 814.835693,67.172905 817.858337,70.213226 
	C855.799805,108.376770 893.851868,146.430786 932.016541,184.371140 
	C935.004272,187.341293 934.889648,188.751892 931.971069,191.665451 
	C835.518372,287.950928 739.149475,384.320282 642.864319,480.773224 
	C639.859253,483.783569 638.396790,484.088928 635.203735,480.873627 
	C597.401245,442.807007 559.454651,404.882996 521.414185,367.054016 
	C518.305786,363.962891 517.958008,362.360199 521.292114,359.039581 
	C578.782654,301.781311 636.125122,244.374359 693.750000,186.749985 
z"></path>
    <path fill="#FFFFFF" opacity="1.000000" stroke="none" d="
M533.803223,679.691040 
	C526.428772,688.582397 517.174500,693.606995 506.184509,694.772217 
	C498.571442,695.579407 491.161316,693.466858 484.527039,689.686218 
	C480.570557,687.431580 476.953827,684.556824 473.647369,681.241699 
	C422.237274,629.696594 370.730560,578.247864 319.270813,526.752258 
	C311.387909,518.863831 306.844574,509.075623 307.200226,498.116119 
	C307.768250,480.610992 319.176910,465.410583 337.534729,461.042816 
	C351.481079,457.724640 363.858612,461.600586 373.713959,471.386505 
	C426.200256,523.503357 478.514099,575.795471 530.628174,628.284424 
	C543.175354,640.921875 547.504028,661.298279 533.803223,679.691040 
z"></path>
    <path fill="#FFFFFF" opacity="1.000000" stroke="none" d="
M580.750000,450.250000 
	C593.003845,462.517242 605.008850,474.533417 617.002930,486.560364 
	C617.210571,486.768585 617.288208,487.106506 617.574280,487.680267 
	C594.005432,490.900116 571.997253,498.506927 551.286743,509.934631 
	C536.076050,518.327576 521.772949,528.043518 508.374573,539.105896 
	C501.881348,544.467041 495.491669,549.922546 489.468018,555.827026 
	C488.090790,557.176941 486.380859,560.127014 483.219635,556.873840 
	C470.687317,543.976990 457.888428,531.338074 445.107483,518.685303 
	C443.547211,517.140686 443.385040,516.333191 444.753052,514.380737 
	C448.285156,509.339600 453.017456,505.438904 456.956482,500.779968 
	C469.146301,486.362183 480.247955,471.255493 489.635742,454.859650 
	C499.511414,437.611725 507.246582,419.543488 511.450134,400.064087 
	C512.550781,394.963684 513.376221,389.803894 514.461548,383.951508 
	C536.599609,406.092896 558.549805,428.046448 580.750000,450.250000 
z"></path>
    <path fill="#FFFFFF" opacity="1.000000" stroke="none" d="
M912.250000,140.750015 
	C884.783691,113.283432 857.606995,86.026939 830.293091,58.908672 
	C827.380127,56.016510 827.113098,55.026440 830.860168,52.354740 
	C844.713196,42.477295 858.205627,32.087593 871.669983,21.678848 
	C873.536316,20.236139 874.176453,20.625498 875.510376,21.960733 
	C910.952209,57.438904 946.425903,92.885292 981.881714,128.324631 
	C970.970642,142.711151 960.001587,156.786865 949.547302,171.234970 
	C946.984192,174.777313 945.728760,174.305649 943.227356,171.776413 
	C933.033752,161.469269 922.750244,151.251068 912.250000,140.750015 
z"></path>
    <path fill="#C5853A" opacity="1.000000" stroke="none" d="
M112.234253,845.733521 
	C109.933807,843.188049 107.442123,841.408630 106.445580,838.111816 
	C105.142532,833.801025 106.849670,830.693359 110.014572,828.751526 
	C113.029266,826.901917 116.818108,826.336548 119.836174,829.346130 
	C137.403336,846.863831 154.990280,864.362732 172.410599,882.025635 
	C175.388947,885.045471 175.016479,889.298706 172.782333,892.465698 
	C170.510651,895.685852 166.934143,897.088867 162.829391,894.986084 
	C160.742493,893.916992 158.981323,892.522339 157.329788,890.863892 
	C142.407288,875.879761 127.439728,860.940491 112.234253,845.733521 
z"></path>
    <path fill="#C5853A" opacity="1.000000" stroke="none" d="
M228.750000,789.250000 
	C234.541107,795.035767 240.104904,800.549011 245.615891,806.114685 
	C249.824631,810.365112 250.065353,815.326660 246.338593,819.155823 
	C243.297775,822.280396 237.328888,821.800476 233.625748,818.100464 
	C217.003296,801.492126 200.385635,784.879028 183.774734,768.259155 
	C180.337906,764.820557 179.793655,758.862488 182.603607,755.889282 
	C186.343216,751.932556 191.387756,751.952148 195.606415,756.138916 
	C206.606873,767.056396 217.539993,778.041748 228.750000,789.250000 
z"></path>
    <path fill="#C5853A" opacity="1.000000" stroke="none" d="
M258.679382,695.181519 
	C254.809967,691.666199 253.886353,687.814209 255.903030,683.344971 
	C257.489319,679.829590 260.432556,678.776794 264.020355,679.014465 
	C266.699280,679.191956 268.454559,680.931763 270.225800,682.706421 
	C286.352539,698.864197 302.503723,714.997620 318.644348,731.141541 
	C323.765747,736.264099 324.471130,741.132446 320.644348,744.833069 
	C316.889801,748.463745 311.328003,747.813049 306.666473,743.154907 
	C290.754303,727.253967 274.852997,711.342102 258.679382,695.181519 
z"></path>
  </symbol>
  <symbol version="1.1" id="Log" xmlns="http://www.w3.org/2000/svg" xmlns:xlink="http://www.w3.org/1999/xlink" x="0px" y="0px" enable-background="new 0 0 1000 1000" xml:space="preserve" viewBox="0 0 1000 1000">
    <path fill="#FFFFFF" opacity="1.000000" stroke="none" d="
M1.426922,611.053711 
	C1.000000,409.372894 1.011642,207.745804 0.913994,6.118754 
	C0.912099,2.206117 1.325327,0.862954 5.879386,0.864997 
	C335.981201,1.013064 666.083130,1.008445 996.184937,0.898696 
	C1000.100769,0.897394 1001.122498,1.488746 1001.119629,5.683188 
	C1000.982788,208.142944 1001.000000,410.602814 1001.000000,613.531372 
	C997.862366,613.361633 998.171387,610.554993 997.874329,608.476562 
	C995.381958,591.038940 990.815063,574.199463 983.321655,558.244202 
	C972.843750,535.934204 958.622375,516.745361 936.765869,504.240326 
	C925.729431,497.925842 913.870300,494.379150 901.044861,494.413757 
	C888.380249,494.447937 875.715454,494.421936 863.050781,494.420471 
	C861.551086,494.420288 860.046753,494.485016 858.553162,494.360443 
	C856.925659,494.224670 854.874390,494.499054 854.118103,492.747986 
	C853.352539,490.975311 854.960632,489.658600 856.080811,488.513855 
	C861.790344,482.678833 867.501892,476.875031 872.493530,470.366272 
	C887.947632,450.215179 897.031799,427.303955 901.648438,402.578796 
	C909.327515,361.451965 906.331116,321.236023 889.443848,282.643524 
	C878.777527,258.267914 863.263367,237.792145 839.066406,225.134506 
	C827.629395,219.151733 815.388611,216.409927 802.483032,216.410889 
	C602.347595,216.425735 402.212128,216.491531 202.076813,216.340103 
	C174.382385,216.319138 152.428207,227.762482 134.829514,248.157318 
	C113.355377,273.043365 102.656326,302.668152 98.340385,334.908264 
	C94.040131,367.031189 97.159401,398.345795 107.954819,428.923035 
	C115.166992,449.350983 126.036308,467.466156 141.361893,482.844482 
	C143.126282,484.614929 144.957932,486.322815 146.626938,488.182404 
	C147.821823,489.513702 149.729385,490.916107 148.814484,492.834930 
	C147.944611,494.659332 145.640656,494.363678 143.841934,494.376831 
	C131.010956,494.470581 118.168747,494.748474 105.350624,494.345947 
	C82.356041,493.623840 63.478020,502.792328 47.397179,518.244629 
	C25.127020,539.644470 12.934801,566.522888 6.507834,596.318726 
	C5.770123,599.738831 5.126238,603.179565 4.480044,606.619080 
	C4.142325,608.416687 3.910177,610.303345 1.426922,611.053711 
z"></path>
    <path fill="#FFFFFF" opacity="1.000000" stroke="none" d="
M1000.540039,667.001709 
	C1001.000000,776.971130 1000.983337,886.942261 1001.081970,996.913330 
	C1001.084900,1000.147339 1000.690186,1001.105225 997.088684,1001.104004 
	C666.342224,1000.992065 335.595764,1000.991211 4.849295,1001.110046 
	C1.120768,1001.111389 0.925616,999.955688 0.928061,996.851318 
	C1.014133,887.546692 1.000000,778.242004 1.000000,668.468628 
	C4.674825,668.228088 4.219565,671.271667 4.610220,673.544373 
	C7.908145,692.730225 13.607048,711.122131 22.859955,728.299622 
	C34.236034,749.418518 49.193855,767.109070 71.188286,777.921753 
	C81.862869,783.169434 93.214264,785.471252 105.027702,785.473633 
	C248.465103,785.502258 391.902496,785.491882 535.339905,785.491882 
	C654.787781,785.491882 774.236023,785.327820 893.683289,785.605957 
	C923.953186,785.676453 947.206543,772.819336 965.628784,749.880371 
	C983.536621,727.581848 992.589233,701.495056 997.328247,673.664612 
	C997.741211,671.239197 997.618103,668.585327 1000.540039,667.001709 
z"></path>
    <path fill="#C5853A" opacity="1.000000" stroke="none" d="
M1001.000000,666.531372 
	C997.464233,671.711426 998.297913,677.566345 997.180176,682.839844 
	C990.346375,715.079712 977.301758,743.954224 952.197449,766.106445 
	C939.761169,777.080200 925.207764,784.132690 908.325073,786.178650 
	C901.510010,787.004639 894.775513,786.955261 888.012085,786.956604 
	C626.290588,787.007812 364.569061,787.041626 102.847618,786.918945 
	C82.532402,786.909424 65.030319,778.970398 49.910240,765.451660 
	C23.575392,741.905823 10.636706,711.463135 3.782194,677.663940 
	C3.156233,674.577271 4.423747,670.930054 1.370096,668.140503 
	C1.000000,667.555542 1.000000,667.111084 1.000000,666.333313 
	C1.737406,665.271545 1.487451,664.375305 1.211620,663.255249 
	C1.000000,647.979126 1.000000,632.958191 1.000000,617.468628 
	C1.904486,615.910095 1.443634,614.664490 1.201481,613.233398 
	C1.000000,612.555542 1.000000,612.111084 1.000000,611.333313 
	C4.704819,608.973450 3.269401,605.017944 3.791378,602.134399 
	C6.927197,584.811462 12.071452,568.136475 20.243010,552.624023 
	C32.170269,529.981934 47.913273,510.686035 71.854576,499.656616 
	C80.669510,495.595703 89.901627,492.917389 99.787369,492.974701 
	C115.931114,493.068298 132.075806,493.000000 149.464264,493.000000 
	C146.764481,490.285919 144.796341,488.194519 142.710083,486.228485 
	C129.867523,474.125977 119.898804,459.913666 112.555107,443.959534 
	C105.507401,428.648468 100.506767,412.656067 97.929436,395.911469 
	C95.916557,382.834076 94.507874,369.727448 95.044235,356.508148 
	C96.039459,331.979858 100.351364,308.141998 110.149399,285.432678 
	C117.581329,268.207367 127.347115,252.568192 140.972382,239.625565 
	C154.292526,226.972763 169.680832,218.240631 188.330612,215.821960 
	C192.297440,215.307510 196.203201,215.024567 200.146042,215.024033 
	C401.928711,214.996735 603.711426,214.941116 805.493958,215.092880 
	C825.239929,215.107742 842.221191,223.060013 857.307922,235.700699 
	C876.837524,252.063965 888.404358,273.526947 896.763184,296.876953 
	C901.094849,308.977356 903.551880,321.685791 905.118408,334.557892 
	C906.602051,346.748230 907.597961,358.951904 906.912781,371.165375 
	C905.063599,404.128296 897.672363,435.537628 879.122986,463.503021 
	C874.307983,470.762085 869.059509,477.716583 862.729736,483.775391 
	C859.873962,486.508942 857.046265,489.271851 853.194824,493.000000 
	C856.127686,493.000000 857.695557,493.000000 859.263428,493.000000 
	C873.593140,493.000000 887.923706,492.904755 902.252441,493.025208 
	C918.536621,493.162109 932.987244,498.855530 945.894653,508.450775 
	C973.760986,529.166443 987.969177,558.285706 995.946106,591.067017 
	C997.755920,598.504272 998.856812,606.114075 1000.641968,613.822205 
	C1001.000000,631.354248 1001.000000,648.708435 1001.000000,666.531372 
z"></path>
    <path fill="#FFFFFF" opacity="1.000000" stroke="none" d="
M1.000000,613.399963 
	C2.737448,613.973633 1.922370,615.399963 1.330584,616.864014 
	C1.000000,615.933289 1.000000,614.866638 1.000000,613.399963 
z"></path>
    <path fill="#FFFFFF" opacity="1.000000" stroke="none" d="
M1.000000,663.375000 
	C2.523228,663.624146 2.027673,664.710999 1.317863,665.887024 
	C1.000000,665.250000 1.000000,664.500000 1.000000,663.375000 
z"></path>
    <path fill="#FFFFFF" opacity="1.000000" stroke="none" d="
M704.000000,509.000000 
	C768.332031,509.000000 832.164307,508.902100 895.995911,509.062164 
	C914.152649,509.107697 929.738342,515.946655 942.988281,528.431763 
	C964.405212,548.612549 975.090942,574.186096 981.097046,602.317810 
	C983.021973,611.334045 983.216187,620.522400 984.832092,629.541687 
	C985.143311,631.278992 984.633179,632.047852 982.852173,631.998657 
	C981.353455,631.957214 979.852478,631.999634 978.352539,631.999634 
	C862.521545,632.000061 746.690613,631.999268 630.859619,632.002075 
	C624.827515,632.002197 621.648315,634.201599 621.012939,638.768616 
	C620.224548,644.435608 623.292725,648.371826 629.047058,648.974060 
	C630.366150,649.112061 631.711548,648.999817 633.044861,648.999817 
	C748.375854,649.000061 863.706848,649.005493 979.037842,648.973816 
	C982.566101,648.972839 984.808716,648.119385 984.293274,654.005066 
	C982.520081,674.254150 978.024536,693.643005 969.969055,712.280151 
	C963.776489,726.607178 955.532837,739.624695 944.109619,750.209106 
	C930.765503,762.573425 915.399170,770.142029 896.373840,770.120911 
	C714.044373,769.918762 531.714722,770.000000 349.385071,770.000000 
	C347.461060,770.000000 345.537048,770.000000 343.247040,770.000000 
	C349.631805,760.835754 357.988678,754.234314 364.084320,745.584595 
	C373.783783,731.821045 380.914886,716.984314 386.205902,701.014404 
	C390.607269,687.729736 392.690521,674.070190 394.955139,660.392639 
	C395.089630,659.580261 394.994965,658.729126 394.999176,657.896057 
	C395.049866,647.914368 393.826660,649.017822 404.239838,649.009583 
	C437.072510,648.983582 469.905151,649.010132 502.737823,648.992065 
	C509.857941,648.988159 512.860291,646.483154 512.999756,640.597656 
	C513.129089,635.135010 510.228058,632.050415 504.616791,632.021973 
	C491.284088,631.954407 477.950775,632.000061 464.617706,632.000000 
	C443.284821,631.999939 421.950928,631.893311 400.619843,632.088989 
	C396.292755,632.128601 394.948120,630.940002 394.885529,626.484375 
	C394.628021,608.156677 390.363495,590.530090 384.618744,573.223572 
	C384.411011,572.597778 383.960419,572.052917 384.676697,571.000000 
	C386.334259,571.000000 388.311035,571.000000 390.287781,571.000000 
	C502.952179,571.000000 615.616577,571.001343 728.280945,570.996887 
	C735.380981,570.996582 738.367859,568.129028 737.998901,561.738342 
	C737.746704,557.370728 734.825867,554.527039 729.959290,554.026428 
	C728.639709,553.890686 727.294739,554.000244 725.961426,554.000244 
	C611.130432,554.000000 496.299438,553.993774 381.468445,554.035767 
	C378.578827,554.036804 375.989502,554.023071 374.499939,550.955078 
	C366.750183,534.993408 355.244751,521.940430 341.300446,509.000000 
	C462.853455,509.000000 583.176697,509.000000 704.000000,509.000000 
z"></path>
    <path fill="#FFFFFF" opacity="1.000000" stroke="none" d="
M577.000000,232.000000 
	C652.666199,232.000000 727.832458,232.058701 802.998535,231.948013 
	C817.182007,231.927124 829.752441,236.424591 840.973694,244.620712 
	C852.520264,253.054520 861.277588,264.133820 869.581970,277.000000 
	C866.925659,277.000000 865.033813,277.000000 863.142029,277.000000 
	C749.142700,277.000000 635.143433,276.999390 521.144104,277.001434 
	C513.617920,277.001587 511.025055,279.542053 510.947723,286.335785 
	C510.892334,291.202667 513.889465,292.990753 517.829956,293.931915 
	C519.250061,294.271088 520.817017,293.999390 522.316956,293.999390 
	C638.982910,294.000061 755.648804,294.025024 872.314636,293.898224 
	C876.499512,293.893677 877.876038,295.125916 879.247131,299.105713 
	C884.279846,313.714600 887.653503,328.536163 889.133545,343.963501 
	C891.701599,370.730774 888.868042,396.724121 880.493042,422.240662 
	C879.219971,426.119263 877.501282,427.097504 873.574219,427.094666 
	C720.408569,426.983154 567.242859,426.999420 414.077118,427.001709 
	C406.595947,427.001801 403.335388,429.247223 403.001953,434.587128 
	C402.652649,440.180847 405.175812,443.283752 410.754852,443.955475 
	C412.234009,444.133545 413.751495,443.999237 415.251373,443.999237 
	C565.083801,444.000061 714.916199,444.000000 864.748596,444.000000 
	C866.703430,444.000000 868.658264,444.000000 871.281189,444.000000 
	C867.518188,450.845947 863.428711,456.677887 859.104675,462.295410 
	C849.916077,474.232697 838.637085,483.567993 824.345093,488.906372 
	C817.698975,491.388824 810.742432,492.905304 803.746521,492.909607 
	C619.414429,493.023132 435.082214,492.999390 250.750031,492.999115 
	C250.088455,492.999115 249.426880,492.999084 248.737396,492.999084 
	C248.452393,490.540222 250.110062,489.276276 251.538727,487.981140 
	C276.213074,465.612518 289.462952,436.908936 296.757843,405.153778 
	C299.094482,394.982147 299.762573,384.412170 300.907806,373.992981 
	C301.173950,371.571533 301.869690,370.755951 304.158966,370.981720 
	C305.314331,371.095642 306.490295,371.000061 307.656952,371.000061 
	C407.156342,371.000000 506.655701,371.001221 606.155090,370.997375 
	C613.057556,370.997131 615.597778,369.463623 617.245056,364.381073 
	C618.956726,359.099731 615.766846,354.319519 610.294312,354.012970 
	C608.965149,353.938538 607.628296,354.000061 606.294983,354.000061 
	C507.628937,353.999969 408.962860,354.000000 310.296814,354.000000 
	C301.210968,354.000000 300.590607,354.030670 300.159943,345.321655 
	C299.409149,330.137634 296.227173,315.437134 291.788239,301.084137 
	C286.651276,284.474030 278.932312,268.965210 268.467102,254.919373 
	C262.507751,246.921021 255.509140,239.898376 247.458755,232.000000 
	C357.855591,232.000000 467.177795,232.000000 577.000000,232.000000 
z"></path>
    <path fill="#FFFFFF" opacity="1.000000" stroke="none" d="
M62.240414,526.260620 
	C72.633095,517.295044 83.974617,511.441589 97.523071,509.925781 
	C116.498947,507.802704 131.938309,514.943970 145.671356,527.166382 
	C167.453735,546.552734 178.620880,571.648987 185.107056,599.446655 
	C188.454544,613.793030 190.312698,628.319031 189.829575,642.911194 
	C189.029343,667.080994 184.603867,690.561584 174.174774,712.754333 
	C167.390182,727.191833 158.990753,740.316711 147.287079,751.150818 
	C133.363586,764.039978 117.229126,771.791809 97.795059,769.896667 
	C86.026077,768.749023 75.485283,763.908752 66.133781,756.627502 
	C43.955238,739.358704 31.824020,715.726013 24.077312,689.473389 
	C18.842077,671.731873 16.309721,653.480225 17.091507,635.002319 
	C18.552118,600.480103 27.365919,568.169373 48.572754,540.223816 
	C52.372887,535.216125 56.183430,529.770874 62.240414,526.260620 
z"></path>
    <path fill="#FFFFFF" opacity="1.000000" stroke="none" d="
M163.378632,243.264023 
	C174.331467,236.666748 185.373932,231.854874 198.220306,231.912918 
	C212.889969,231.979218 225.340179,237.718964 236.608765,246.249222 
	C250.366455,256.663696 259.884155,270.668243 267.382660,285.965302 
	C274.816437,301.130371 279.394867,317.215729 282.140503,333.941833 
	C284.470245,348.134186 284.932983,362.432709 283.761871,376.532623 
	C281.148987,407.991211 272.132568,437.387848 251.996307,462.604889 
	C242.656281,474.301636 231.572174,483.542572 217.579987,488.951202 
	C198.218552,496.435333 180.286728,492.512115 163.699707,481.115906 
	C144.464279,467.900085 132.550400,449.036377 124.082031,427.795441 
	C117.943260,412.397736 114.387146,396.420471 112.857666,379.814941 
	C109.097702,338.992828 117.207970,301.193573 140.075989,266.934814 
	C146.222885,257.726105 154.353409,250.259109 163.378632,243.264023 
z"></path>
    <path fill="#FFFFFF" opacity="1.000000" stroke="none" d="
M213.953888,691.115234 
	C210.520294,682.287292 209.917526,673.241516 207.985214,664.494446 
	C206.300522,656.868286 206.726395,649.049011 206.282501,641.366882 
	C205.754730,632.233215 206.819290,622.902344 208.124054,613.790100 
	C210.728394,595.601685 215.855606,578.019165 224.217377,561.632874 
	C233.711548,543.027466 246.391037,526.817078 265.061218,516.671631 
	C281.212677,507.894775 298.324402,506.404541 315.498596,514.224731 
	C334.678253,522.958069 347.823425,538.012207 357.939850,555.949158 
	C366.504974,571.135559 372.497925,587.388062 375.678650,604.523499 
	C378.485504,619.645020 380.103149,635.005127 378.882141,650.363586 
	C376.951416,674.648193 371.735596,698.185608 360.020050,719.875488 
	C349.822388,738.755188 336.787109,755.089478 316.926392,764.449768 
	C296.059235,774.284424 276.138824,771.351868 257.613251,758.085693 
	C234.514175,741.544495 222.185226,717.874756 213.953888,691.115234 
z"></path>
    <path fill="#FFFFFF" opacity="1.000000" stroke="none" d="
M200.332916,574.230652 
	C199.458130,575.634094 198.789307,577.660645 198.180923,577.642639 
	C196.524475,577.593750 196.489090,575.699341 195.966766,574.381714 
	C188.639267,555.897339 179.982422,538.268005 166.220795,523.437439 
	C161.989410,518.877319 157.402557,514.581543 153.102615,509.310059 
	C183.176529,509.310059 212.767365,509.310059 243.414505,509.310059 
	C223.705963,527.909241 208.993637,548.876526 200.332916,574.230652 
z"></path>
    <path fill="#FFFFFF" opacity="1.000000" stroke="none" d="
M163.254196,759.245911 
	C178.161407,743.702637 186.268250,729.705200 198.197449,699.812073 
	C207.958725,726.933716 221.225739,750.723877 243.675079,769.632507 
	C212.868378,769.632507 183.270111,769.632507 152.754852,769.632507 
	C156.489471,765.938599 159.746048,762.717529 163.254196,759.245911 
z"></path>
    <path fill="#C5853A" opacity="1.000000" stroke="none" d="
M485.004211,720.000000 
	C480.673157,720.000000 476.840851,720.024475 473.008911,719.994263 
	C467.339844,719.949524 462.871338,716.050415 463.004913,711.308105 
	C463.147095,706.258789 467.057861,703.008850 473.154541,703.007568 
	C534.135559,702.995178 595.116577,702.992859 656.097595,703.011047 
	C662.146423,703.012817 665.008301,705.840698 664.999939,711.573730 
	C664.991760,717.181519 662.038269,719.989380 655.950073,719.991028 
	C599.134399,720.006226 542.318787,720.000000 485.004211,720.000000 
z"></path>
    <path fill="#C5853A" opacity="1.000000" stroke="none" d="
M789.016785,703.000000 
	C823.328613,703.000000 857.143738,702.992065 890.958801,703.008240 
	C896.276001,703.010803 899.893982,705.572144 900.931641,709.921082 
	C901.763977,713.409363 899.172852,717.418335 895.222900,719.375488 
	C893.734436,720.112976 892.329956,719.977661 890.884583,719.978699 
	C853.904541,720.005676 816.924438,720.008484 779.944397,719.990662 
	C774.543884,719.988037 770.248352,716.331726 770.046448,711.709167 
	C769.843201,707.053894 774.413208,703.054443 780.024658,703.004395 
	C782.856201,702.979187 785.688232,703.000000 789.016785,703.000000 
z"></path>
    <path fill="#C5853A" opacity="1.000000" stroke="none" d="
M816.001221,554.000000 
	C824.657776,554.000244 832.815308,553.935547 840.971313,554.018982 
	C849.058899,554.101746 853.759705,561.485168 849.166626,567.743103 
	C847.467773,570.057678 845.639343,570.989929 843.047302,570.992432 
	C828.398254,571.006714 813.749023,571.035217 799.100220,570.976013 
	C795.106628,570.959839 791.315002,567.552063 791.210632,563.236267 
	C791.121338,559.541565 792.603455,556.265259 796.751343,554.949402 
	C802.940857,552.985779 809.263062,554.492126 816.001221,554.000000 
z"></path>
    <path fill="#C5853A" opacity="1.000000" stroke="none" d="
M689.048096,354.488159 
	C709.981323,354.145874 730.587952,354.060974 751.194580,354.011963 
	C755.433044,354.001923 757.968567,356.437836 758.906433,360.308777 
	C759.994751,364.800751 757.865723,368.063232 753.863403,369.873352 
	C752.320923,370.570984 750.567749,371.071533 748.655579,371.060699 
	C730.536377,370.958069 712.416199,371.033508 694.296570,370.977600 
	C689.245667,370.962006 684.833740,368.052551 684.147583,364.072968 
	C683.453796,360.049469 684.386719,356.479828 689.048096,354.488159 
z"></path>
    <path fill="#C5853A" opacity="1.000000" stroke="none" d="
M380.037415,294.000000 
	C376.081055,293.771118 372.493011,294.727081 369.166290,293.531372 
	C365.207397,292.108459 362.283386,289.479248 363.055939,284.747742 
	C363.792236,280.238342 366.578217,277.138153 371.211487,277.083191 
	C388.016663,276.883728 404.826843,276.888977 421.632477,277.068695 
	C427.214508,277.128387 430.131348,280.576508 429.999268,285.888580 
	C429.869446,291.110809 426.943237,293.914093 420.968140,293.963989 
	C407.489746,294.076599 394.009796,293.999756 380.037415,294.000000 
z"></path>
    <path fill="#C5853A" opacity="1.000000" stroke="none" d="
M63.272789,699.649170 
	C56.783794,685.514160 53.264317,671.069031 51.812691,655.924194 
	C51.064644,648.119873 50.666111,640.338196 51.118980,632.614868 
	C52.482883,609.354797 56.938396,586.937378 70.870110,567.386780 
	C77.885422,557.542114 86.850403,550.675720 98.774513,548.211426 
	C102.819839,547.375427 107.090149,547.544312 110.003616,551.256226 
	C112.481834,554.413574 112.667931,557.745178 110.375710,561.302551 
	C108.987091,563.457581 106.799377,564.797302 104.828171,564.808777 
	C93.594139,564.874390 87.516617,572.587708 82.381508,580.553955 
	C74.217682,593.218750 70.649002,607.582275 68.828323,622.558716 
	C67.655609,632.205200 67.492455,641.854309 68.208328,651.358643 
	C69.607254,669.931702 74.094093,687.833435 85.164696,703.345886 
	C89.175194,708.965576 94.701256,713.225220 101.488350,714.583557 
	C107.268005,715.740356 112.431671,712.573364 116.508369,708.793030 
	C121.190765,704.450989 126.966301,705.644287 129.939331,709.465515 
	C132.575287,712.853638 131.001953,719.323975 126.956863,722.527283 
	C107.532692,737.909607 84.557030,731.891785 71.384651,712.938904 
	C68.485977,708.768188 65.579018,704.620605 63.272789,699.649170 
z"></path>
    <path fill="#C5853A" opacity="1.000000" stroke="none" d="
M144.236755,632.031006 
	C150.260651,630.124329 155.716476,633.661987 155.967010,639.562317 
	C156.358749,648.788940 154.974747,657.918152 153.837387,667.025940 
	C153.123245,672.744507 149.338882,674.844177 143.009277,673.993774 
	C139.340332,673.500916 136.341583,669.321960 137.083466,664.595703 
	C138.412460,656.129089 139.222931,647.672119 139.067673,639.093567 
	C139.009384,635.872803 141.280396,633.754089 144.236755,632.031006 
z"></path>
    <path fill="#C5853A" opacity="1.000000" stroke="none" d="
M247.743439,390.526031 
	C244.761856,403.027069 241.495361,414.964294 234.756134,425.607635 
	C226.445999,438.731995 215.724289,448.851898 199.430389,449.787262 
	C189.542938,450.354889 180.611023,446.526642 173.114014,439.664368 
	C159.274628,426.996735 152.823532,410.521820 149.092697,392.793854 
	C146.543930,380.682861 145.275238,368.312866 146.070496,355.928558 
	C147.588303,332.292053 151.999527,309.354706 167.442368,290.367645 
	C174.988174,281.090057 184.785873,274.845520 197.505188,274.995056 
	C202.221115,275.050507 205.629913,277.567322 205.996002,281.333344 
	C206.585648,287.399109 204.749359,291.278656 199.468613,291.611023 
	C185.603409,292.483582 179.485901,302.283478 173.808655,312.651703 
	C168.006134,323.248779 165.402084,334.799744 163.905197,346.763428 
	C161.212402,368.285370 163.567642,389.118591 172.220200,408.943268 
	C175.440445,416.321411 179.656631,423.459473 186.702103,428.383850 
	C196.691849,435.366089 202.900696,434.551636 212.486221,425.730194 
	C222.402893,416.604065 226.858749,404.104187 229.981171,391.230988 
	C232.240646,381.915497 233.283554,372.479614 233.073410,362.860931 
	C232.954803,357.431610 236.172485,354.187897 240.910660,354.000977 
	C245.782272,353.808807 249.564789,356.298004 249.893677,360.542419 
	C250.239990,365.011993 250.186737,369.549988 249.857086,374.024841 
	C249.460297,379.410828 248.588058,384.761749 247.743439,390.526031 
z"></path>
    <path fill="#C5853A" opacity="1.000000" stroke="none" d="
M340.723114,601.413818 
	C343.235901,613.734619 345.456726,625.675110 345.039307,637.948914 
	C344.807587,644.763062 342.518402,647.845093 336.930969,647.999329 
	C331.804077,648.140808 327.997681,644.076721 328.058472,637.843872 
	C328.139191,629.567505 327.747314,621.366699 325.995270,613.261841 
	C322.827942,598.609985 318.189545,584.609436 308.349030,572.861084 
	C300.057526,562.962219 288.341888,562.387573 279.049957,571.432373 
	C268.126678,582.065247 263.362610,595.769104 260.074921,610.079529 
	C257.409454,621.681580 256.392242,633.525757 257.023682,645.438232 
	C258.174622,667.150879 262.499146,687.946594 276.315643,705.535156 
	C280.675507,711.085449 286.716217,714.421692 294.003784,715.010620 
	C298.331970,715.360474 301.218750,718.914978 300.997711,723.478943 
	C300.788605,727.795654 297.724365,730.827332 293.549072,731.010376 
	C278.635468,731.664062 268.392212,723.654297 260.252167,712.466125 
	C249.443161,697.609436 244.238113,680.565796 241.962250,662.484985 
	C240.912018,654.141296 239.639557,645.801941 240.045074,637.387695 
	C241.181915,613.799316 244.589508,590.740723 257.942017,570.433472 
	C266.432404,557.520752 277.230255,547.740967 293.837463,548.104065 
	C304.713745,548.341919 313.776489,553.636719 320.838745,561.531616 
	C330.932648,572.815552 336.904633,586.401733 340.723114,601.413818 
z"></path>
  </symbol>
  <symbol version="1.1" id="Triangle" xmlns="http://www.w3.org/2000/svg" xmlns:xlink="http://www.w3.org/1999/xlink" x="0px" y="0px" enable-background="new 0 0 1000 1000" xml:space="preserve" viewBox="0 0 1000 1000">
    <path fill="#FFFFFF" opacity="1.000000" stroke="none" d="
M1.332162,988.125854 
	C1.000000,660.572510 1.010129,333.145050 0.885435,5.717600 
	C0.883866,1.597134 1.792466,0.892422 5.780377,0.893826 
	C333.207794,1.009085 660.635254,1.000000 988.531372,1.000000 
	C989.459717,2.480285 988.212341,3.050095 987.438171,3.823463 
	C764.843994,226.174255 542.477722,448.753052 319.975586,671.195923 
	C216.031082,775.112671 112.114532,879.057373 8.160895,982.964905 
	C6.191753,984.933228 4.590320,987.428894 1.332162,988.125854 
z"></path>
    <path fill="#C5853A" opacity="1.000000" stroke="none" d="
M1000.737610,6.701211 
	C1001.000000,336.020905 1001.000000,665.041809 1001.000000,994.531372 
	C999.427185,998.231262 996.796387,999.512329 993.275635,999.334839 
	C991.448486,999.242615 989.610107,999.330139 987.776855,999.330139 
	C663.284790,999.330688 338.792694,999.330688 14.300613,999.330322 
	C12.633998,999.330322 10.963155,999.405273 9.301805,999.302917 
	C7.038860,999.163269 4.308537,999.715332 3.259836,996.927368 
	C2.223325,994.171814 2.413432,991.317444 4.171701,988.805542 
	C5.708160,986.610596 7.756284,984.864624 9.639705,982.981201 
	C191.356888,801.254333 373.079224,619.532593 554.801208,437.810638 
	C697.515442,295.096405 840.229553,152.381943 982.947144,9.671103 
	C984.713867,7.904515 986.358093,5.991436 988.372437,4.502510 
	C992.523010,1.434547 997.285400,2.218242 1000.737610,6.701211 
z"></path>
    <path fill="#C5853A" opacity="1.000000" stroke="none" d="
M1001.000000,6.625000 
	C993.747375,2.239050 992.040710,2.459187 985.497437,9.002521 
	C659.786804,334.713135 334.076111,660.423767 8.367572,986.136475 
	C6.039966,988.464172 3.392882,990.459900 3.900205,994.519043 
	C4.210177,996.999268 4.846382,998.246521 7.459669,998.010010 
	C8.451303,997.920288 9.458131,997.999878 10.458033,997.999878 
	C337.594666,998.000000 664.731262,997.996704 991.867920,998.047791 
	C995.128052,998.048340 998.085327,997.884033 1000.634583,995.062134 
	C1001.000000,995.750000 1001.000000,996.500000 1001.000000,997.625000 
	C1000.724548,998.299133 1000.517029,998.639709 1000.244019,999.293945 
	C999.917480,999.923462 999.686340,1000.254517 999.211365,1000.781616 
	C667.981934,1001.000000 336.963806,1000.988708 5.945777,1001.122131 
	C1.576686,1001.123901 0.341905,1000.062317 0.940490,995.941528 
	C1.272274,993.657471 1.000000,991.285583 0.999995,988.476685 
	C2.477468,986.690369 4.028441,985.454224 5.422063,984.060730 
	C331.444000,658.059021 657.454346,332.045715 983.482361,6.050083 
	C985.098938,4.433688 986.405151,2.392780 988.880615,1.320425 
	C991.700012,1.000000 994.400024,1.000000 997.550049,1.000000 
	C998.974304,1.732338 1000.168457,2.237964 1000.802002,3.762899 
	C1001.000000,4.750000 1001.000000,5.500000 1001.000000,6.625000 
z"></path>
    <path fill="#FFFFFF" opacity="1.000000" stroke="none" d="
M1001.000000,3.499996 
	C1000.052734,3.203730 999.105408,2.407468 998.079102,1.305603 
	C999.268921,1.263320 1001.612244,-0.085014 1001.000000,3.499996 
z"></path>
    <path fill="#FFFFFF" opacity="1.000000" stroke="none" d="
M999.500000,1001.000000 
	C999.145691,1000.378235 999.291443,999.756470 999.729431,998.984131 
	C1000.201233,998.763977 1000.380859,998.694397 1000.780273,998.812439 
	C1000.588135,999.627441 1001.971985,1001.152649 999.500000,1001.000000 
z"></path>
    <path fill="#C5853A" opacity="1.000000" stroke="none" d="
M1001.000000,998.750000 
	C1001.000000,999.000000 1000.501587,998.971130 1000.261597,998.902344 
	C1000.140076,998.551086 1000.329956,998.330139 1000.795654,998.085327 
	C1001.000000,998.000000 1001.000000,998.500000 1001.000000,998.750000 
z"></path>
    <path fill="#FFFFFF" opacity="1.000000" stroke="none" d="
M348.392487,985.184509 
	C348.017853,973.898743 347.994141,962.912781 347.901917,951.462524 
	C346.710999,949.609558 346.358002,947.886963 345.736389,945.940674 
	C345.694061,945.618713 345.573975,945.438538 345.488464,945.372131 
	C344.104370,944.977234 343.015747,944.131531 341.704224,943.825012 
	C336.681244,942.651123 332.602936,945.624268 332.526123,950.784790 
	C332.389923,959.937988 332.521332,969.093994 332.471710,978.248596 
	C332.432831,985.417480 331.458282,986.454773 324.477173,986.466614 
	C300.508423,986.507263 276.539551,986.488220 252.570740,986.473206 
	C250.587021,986.471985 248.551651,986.670654 246.400452,985.187744 
	C246.017899,973.565491 245.994171,962.246277 245.901917,950.462769 
	C243.792114,946.210388 241.470047,942.644775 236.361023,943.705750 
	C232.576355,944.491760 230.487503,948.616394 230.470917,954.518127 
	C230.447617,962.808533 230.549973,971.099976 230.430023,979.389099 
	C230.345276,985.243896 229.224503,986.365845 223.367905,986.431458 
	C214.083542,986.535522 204.797562,986.477478 195.512299,986.449951 
	C193.854874,986.445007 192.181915,986.447388 190.378372,985.179260 
	C190.017914,963.232117 189.994186,941.579529 189.901932,919.462646 
	C188.798752,917.716431 188.261978,916.018860 186.778488,915.119507 
	C184.033981,913.455688 181.294205,913.406189 178.295380,914.749207 
	C175.291428,916.094482 175.511307,918.574402 175.504150,921.031677 
	C175.449066,939.962585 175.504669,958.893677 175.468323,977.824707 
	C175.453384,985.608582 174.619308,986.441223 166.950714,986.469604 
	C158.481674,986.500916 150.012421,986.490662 141.543320,986.467651 
	C139.563629,986.462280 137.534271,986.654053 135.393127,985.184937 
	C135.017914,973.232117 134.994186,961.579407 134.901947,949.462524 
	C132.450516,944.914490 128.442200,942.713745 125.208870,943.714111 
	C121.821770,944.762024 119.509689,948.575684 119.491051,953.248169 
	C119.457184,961.739868 119.530846,970.231934 119.461594,978.723267 
	C119.408257,985.263184 118.324905,986.439209 111.991402,986.454163 
	C86.682732,986.514038 61.373894,986.484192 36.065121,986.470886 
	C34.239552,986.469971 32.382038,986.569580 30.396103,985.186035 
	C30.041637,984.884766 30.015491,984.498901 30.028942,984.305969 
	C31.199211,981.421509 33.428589,979.612427 35.422287,977.618713 
	C332.835724,680.198669 630.252686,382.782043 927.669678,85.365532 
	C944.991516,68.043701 962.304688,50.713276 979.651306,33.416344 
	C981.036560,32.035088 982.143677,30.225090 984.624878,29.951584 
	C984.950684,30.095648 984.981384,30.017633 984.943298,30.035198 
	C986.490356,31.821510 986.479980,34.000183 986.480408,36.176899 
	C986.485596,61.322273 986.508240,86.467690 986.465454,111.612999 
	C986.453979,118.347725 985.351685,119.418297 978.605530,119.467300 
	C969.946533,119.530205 961.285156,119.578613 952.628540,119.434853 
	C949.489502,119.382729 947.237061,120.535835 945.235046,122.782059 
	C943.174683,125.093643 943.162109,127.607018 944.252441,130.224289 
	C945.278625,132.687454 947.411438,133.483490 949.923950,133.495728 
	C959.249329,133.541138 968.574829,133.489029 977.900085,133.528305 
	C980.044006,133.537338 982.256104,133.238678 984.581299,134.794647 
	C984.944763,135.093536 984.984009,135.016068 984.944641,135.034424 
	C986.484375,136.821793 986.482178,138.996338 986.482544,141.173782 
	C986.484253,150.161652 986.537476,159.149887 986.462402,168.137238 
	C986.411194,174.254150 985.266174,175.432922 979.116638,175.457535 
	C959.809570,175.534821 940.502136,175.459412 921.194885,175.504456 
	C918.549500,175.510620 915.971741,175.320953 914.628601,178.645813 
	C912.131042,184.828293 914.254456,188.451584 920.973694,188.482758 
	C939.781311,188.569977 958.589478,188.496643 977.397400,188.530106 
	C979.699585,188.534210 982.085083,188.152786 984.577881,189.792847 
	C984.944763,190.093536 984.984009,190.016068 984.944641,190.034424 
	C986.369812,191.661987 986.465942,193.653915 986.468567,195.668488 
	C986.480591,204.980209 986.554871,214.292786 986.439636,223.603348 
	C986.370850,229.163528 985.190918,230.348267 979.631348,230.434631 
	C970.653748,230.574081 961.673462,230.449432 952.694336,230.492004 
	C951.045654,230.499817 949.369019,230.324707 947.909058,231.432831 
	C945.161804,233.518173 942.798889,235.711212 943.761292,239.707336 
	C944.704651,243.624893 947.781616,244.376816 950.993652,244.448090 
	C959.969482,244.647278 968.950867,244.494583 977.929932,244.534744 
	C980.071655,244.544342 982.278625,244.261459 984.592102,245.798996 
	C984.944763,246.093536 984.984009,246.016068 984.944641,246.034424 
	C986.617371,247.970871 986.479431,250.333557 986.479980,252.656860 
	C986.485901,276.568939 986.506042,300.481079 986.469116,324.393097 
	C986.458191,331.439911 985.441345,332.427795 978.370300,332.470673 
	C969.901672,332.522034 961.432678,332.467560 952.963806,332.490540 
	C945.174622,332.511658 942.764099,335.511841 944.215515,343.922119 
	C944.317932,344.381042 944.435120,344.558899 944.518311,344.625366 
	C953.736694,348.017303 963.227661,345.930908 972.541382,346.541779 
	C976.446838,346.797974 980.467468,345.707428 984.595093,347.800110 
	C984.944763,348.093536 984.983887,348.016083 984.944580,348.034424 
	C986.353882,349.669495 986.476440,351.654816 986.478394,353.678131 
	C986.486938,362.505249 986.538574,371.332794 986.459961,380.159302 
	C986.405518,386.272339 985.265503,387.431183 979.079468,387.456879 
	C960.759216,387.532990 942.438599,387.447113 924.118286,387.509369 
	C920.200806,387.522705 916.359558,388.001373 914.564941,392.293457 
	C912.375427,397.529846 915.047180,401.459686 920.938843,401.484680 
	C939.758728,401.564575 958.578979,401.496643 977.399048,401.531036 
	C979.702942,401.535217 982.089661,401.157440 984.580933,402.794434 
	C984.944763,403.093536 984.983887,403.016083 984.944580,403.034424 
	C986.500977,404.809113 986.467712,406.987274 986.469971,409.149506 
	C986.479492,418.103851 986.532349,427.058685 986.451904,436.012421 
	C986.394958,442.354736 985.305298,443.397339 978.760132,443.455109 
	C970.303711,443.529755 961.846497,443.459747 953.389587,443.481384 
	C945.117065,443.502533 942.723267,446.352814 944.216797,454.935883 
	C944.317932,455.381042 944.440186,455.550140 944.523682,455.612671 
	C948.313293,457.068359 952.176758,456.450867 955.973816,456.495544 
	C963.620789,456.585541 971.269470,456.509125 978.917480,456.530975 
	C980.740295,456.536163 982.594727,456.432159 984.586792,457.796814 
	C984.944763,458.093536 984.983887,458.016083 984.944580,458.034424 
	C986.619385,459.973938 986.480103,462.339935 986.480591,464.666565 
	C986.485901,488.945221 986.508667,513.223938 986.467834,537.502502 
	C986.456177,544.441833 985.394226,545.435059 978.238281,545.472595 
	C969.258667,545.519775 960.278625,545.447021 951.299072,545.502686 
	C946.623718,545.531677 943.590210,548.122375 943.540344,551.984924 
	C943.481995,556.504883 945.606873,558.441772 950.967651,558.489746 
	C959.946960,558.570007 968.927124,558.493469 977.906799,558.527649 
	C980.047668,558.535767 982.256775,558.236633 984.579956,559.794006 
	C984.944763,560.093567 984.983948,560.016052 984.944580,560.034424 
	C986.354187,561.669861 986.476624,563.655640 986.478516,565.679321 
	C986.487122,574.841431 986.538513,584.003967 986.459778,593.165527 
	C986.407166,599.285889 985.275879,600.432312 979.071106,600.457092 
	C960.080688,600.532959 941.089966,600.446533 922.099487,600.506470 
	C916.873291,600.522949 914.561829,602.516357 913.944031,607.273010 
	C913.554626,610.270935 914.560181,612.402588 917.569763,613.532471 
	C919.651367,614.313904 921.739380,614.525513 923.923828,614.524170 
	C941.748291,614.512878 959.572815,614.499268 977.397278,614.531067 
	C979.701599,614.535217 982.088867,614.156860 984.580811,615.794373 
	C984.944763,616.093567 984.983948,616.016052 984.944580,616.034424 
	C986.370972,617.664185 986.466675,619.658325 986.469177,621.675293 
	C986.480164,630.664856 986.558228,639.655396 986.438965,648.643677 
	C986.365601,654.172302 985.170105,655.351196 979.578491,655.437317 
	C970.756836,655.573303 961.930725,655.352051 953.110229,655.526550 
	C947.018982,655.646973 943.110229,659.300354 943.594116,663.963562 
	C944.028687,668.151428 946.633606,669.511169 950.453857,669.514893 
	C959.609924,669.523682 968.766052,669.497437 977.921997,669.534424 
	C980.066162,669.543091 982.275818,669.259644 984.591919,670.798950 
	C984.944763,671.093567 984.983948,671.016052 984.944580,671.034424 
	C986.625549,672.978455 986.478455,675.351624 986.479126,677.682251 
	C986.486206,701.515320 986.502319,725.348328 986.471008,749.181396 
	C986.461365,756.532043 985.510071,757.440186 978.035217,757.474731 
	C969.368835,757.514709 960.702148,757.468018 952.035583,757.495605 
	C949.099548,757.504944 946.360840,758.044922 944.729126,760.825989 
	C941.594299,766.168762 944.437317,771.269775 950.896912,771.445618 
	C959.891235,771.690674 968.895264,771.488892 977.895020,771.528503 
	C980.040649,771.537964 982.254639,771.237610 984.581421,772.794678 
	C984.944763,773.093567 984.983948,773.016052 984.944580,773.034424 
	C986.485779,774.821411 986.481934,776.996704 986.482361,779.173889 
	C986.484009,788.162231 986.538513,797.151001 986.461853,806.138794 
	C986.409729,812.243469 985.250916,813.432678 979.108276,813.457275 
	C960.133057,813.533325 941.157410,813.494690 922.182129,813.465881 
	C919.419983,813.461670 916.690125,813.524780 915.133484,816.162231 
	C913.863464,818.314209 913.036255,820.710510 914.260315,823.266479 
	C915.637085,826.141602 918.174316,826.516357 920.972473,826.516541 
	C939.781433,826.517761 958.590454,826.496521 977.399414,826.530212 
	C979.701782,826.534363 982.087341,826.153748 984.578979,827.793457 
	C984.944763,828.093567 984.983948,828.016052 984.944580,828.034424 
	C986.375305,829.662292 986.463074,831.658691 986.465820,833.673035 
	C986.478455,842.991638 986.556213,852.311157 986.435486,861.628601 
	C986.363892,867.153748 985.158691,868.349304 979.595581,868.433777 
	C970.777588,868.567749 961.957031,868.443787 953.137695,868.484497 
	C945.476807,868.519836 942.770081,871.843323 944.219421,879.937988 
	C944.321289,880.381958 944.435608,880.560669 944.517212,880.628418 
	C947.952942,882.313843 951.500732,882.618408 955.184448,882.563232 
	C962.945312,882.447021 970.709351,882.511597 978.471985,882.538696 
	C980.441223,882.545593 982.458618,882.361938 984.594482,883.799927 
	C984.944763,884.093567 984.983948,884.016052 984.944580,884.034424 
	C986.595581,885.979004 986.492310,888.333191 986.492310,890.667175 
	C986.492310,920.095764 986.511597,949.524414 986.477234,978.953003 
	C986.469666,985.451111 985.441895,986.470947 978.911987,986.477905 
	C949.317139,986.509521 919.722290,986.497131 890.127441,986.485168 
	C888.304810,986.484436 886.447876,986.616333 884.430542,985.202637 
	C884.017822,973.565430 883.994202,962.246216 883.901978,950.462769 
	C882.962341,948.835205 882.254639,947.579895 881.710693,945.921265 
	C881.708252,945.611450 881.580139,945.436646 881.492249,945.373291 
	C880.594238,945.093811 879.888367,944.623352 879.115234,944.336670 
	C872.912109,942.036499 868.601440,945.010681 868.508728,951.796082 
	C868.386047,960.777405 868.531433,969.761230 868.452637,978.743286 
	C868.395142,985.304199 867.350769,986.392883 860.988403,986.449280 
	C852.006409,986.528870 843.023376,986.482300 834.040833,986.462402 
	C832.217590,986.458374 830.361633,986.553894 828.385742,985.182129 
	C828.017883,963.231995 827.994202,941.579346 827.901978,919.462463 
	C825.263916,914.594788 822.466919,913.140381 818.754517,914.055115 
	C814.595276,915.079773 813.426575,917.839539 813.443909,921.833374 
	C813.522034,939.800720 813.485840,957.768677 813.475220,975.736450 
	C813.474121,977.565796 813.486938,979.394775 813.397095,981.224548 
	C813.227844,984.672424 811.390259,986.374817 807.999939,986.409058 
	C797.520020,986.514954 787.039734,986.557129 776.560181,986.379883 
	C775.556152,986.362915 774.592468,986.064209 773.392151,985.184448 
	C773.017822,973.565430 772.994202,962.246216 772.901978,950.462769 
	C771.962341,948.835205 771.254639,947.579895 770.710693,945.921265 
	C770.708252,945.611450 770.580139,945.436646 770.492249,945.373291 
	C762.407227,940.811279 756.891479,945.638306 757.373230,953.856812 
	C757.868896,962.311707 757.554077,970.820312 757.453552,979.304077 
	C757.383728,985.191223 756.221497,986.429871 750.435791,986.447876 
	C725.813660,986.524414 701.191223,986.488098 676.568909,986.471680 
	C674.903442,986.470581 673.227295,986.476624 671.400024,985.187561 
	C671.017822,973.232056 670.994141,961.579468 670.901978,949.462646 
	C668.019714,944.829712 664.200989,942.765320 661.147888,943.762268 
	C657.783142,944.860962 655.569946,948.479492 655.502808,953.427673 
	C655.385681,962.059692 655.552368,970.694519 655.431885,979.326416 
	C655.349487,985.224792 654.236572,986.359070 648.412964,986.430115 
	C639.448914,986.539490 630.482910,986.476868 621.517761,986.450195 
	C619.858154,986.445251 618.183105,986.447998 616.377930,985.179016 
	C616.017883,963.898682 615.994202,942.912720 615.901978,921.462524 
	C614.710999,919.609619 614.358032,917.887024 613.736267,915.940674 
	C613.693848,915.618774 613.571411,915.444824 613.486755,915.380432 
	C611.172241,914.685059 608.944641,913.936523 606.584717,914.271118 
	C602.872620,914.797424 600.517883,917.733765 600.504028,922.029663 
	C600.446106,939.962219 600.487915,957.894958 600.476562,975.827637 
	C600.475403,977.653442 600.500549,979.479187 600.390381,981.304871 
	C600.200989,984.442505 598.646790,986.314636 595.432068,986.365601 
	C584.643066,986.536682 573.852600,986.618652 563.063965,986.317017 
	C562.227905,986.293579 561.452209,985.948792 560.393738,985.184937 
	C560.017822,973.232056 559.994202,961.579468 559.901978,949.462646 
	C556.228699,943.713989 552.044983,942.198853 548.370117,944.777466 
	C546.093445,946.375061 545.413086,948.500183 545.443848,951.227417 
	C545.545288,960.218994 545.516907,969.212952 545.469788,978.205688 
	C545.431458,985.517395 544.480530,986.461548 537.010498,986.470093 
	C512.862793,986.497681 488.715057,986.487366 464.567322,986.471436 
	C462.582489,986.470093 460.546417,986.665283 458.397034,985.186401 
	C458.017883,972.898865 457.994171,960.912964 457.901917,948.462891 
	C457.415100,947.464111 457.011749,946.920166 456.739380,945.944946 
	C456.721100,945.607178 456.587402,945.429688 456.495178,945.367676 
	C455.101013,944.986267 454.018463,944.128723 452.708557,943.819031 
	C447.698273,942.634583 443.609314,945.606689 443.522919,950.767761 
	C443.372498,959.751770 443.505493,968.738953 443.466309,977.724670 
	C443.431580,985.689697 442.653198,986.445007 434.503235,986.468079 
	C426.349518,986.491150 418.195587,986.491760 410.041901,986.461365 
	C407.898743,986.453369 405.689758,986.730591 403.386200,985.182251 
	C403.017883,963.232117 402.994171,941.579407 402.901917,919.462524 
	C402.169861,918.239136 401.822510,917.299011 401.208801,916.168762 
	C401.057037,915.913025 401.009094,915.990356 401.047943,915.966675 
	C391.908417,912.034485 387.518890,914.899841 387.492554,924.911377 
	C387.446259,942.530518 387.500519,960.149841 387.468750,977.769043 
	C387.454651,985.580994 386.604919,986.439209 378.981659,986.469666 
	C370.837036,986.502258 362.692200,986.491089 354.547516,986.468079 
	C352.565857,986.462463 350.534698,986.654175 348.392487,985.184509 
z"></path>
    <path fill="#C5853A" opacity="1.000000" stroke="none" d="
M984.940796,29.760595 
	C983.353882,31.510355 981.677429,32.845375 980.171631,34.351059 
	C665.307251,349.192474 350.454834,664.045776 35.601677,978.898438 
	C33.953934,980.546143 32.300510,982.188110 30.346056,983.972900 
	C29.855433,982.539490 30.155674,981.158752 31.427547,980.055237 
	C32.306358,979.292603 33.085178,978.414978 33.910049,977.590088 
	C349.129303,662.370544 664.346680,347.149078 979.641113,32.004795 
	C980.911499,30.735054 981.674438,27.118057 984.940796,29.760595 
z"></path>
    <path fill="#C5853A" opacity="1.000000" stroke="none" d="
M884.043091,985.307678 
	C916.507690,984.922729 948.974365,984.880371 981.439331,985.098694 
	C985.603699,985.126648 985.004883,982.862671 985.003967,980.384827 
	C984.992615,948.583008 984.989380,916.781250 984.944702,884.516113 
	C987.829102,884.486816 987.969910,886.784058 987.972351,888.944763 
	C988.008118,920.547180 987.973755,952.149597 988.029663,983.751892 
	C988.035583,987.074341 986.508911,988.036133 983.435913,988.031006 
	C951.500977,987.977600 919.565857,987.999817 887.630798,987.993774 
	C885.980042,987.993469 884.122437,988.254089 884.043091,985.307678 
z"></path>
    <path fill="#C5853A" opacity="1.000000" stroke="none" d="
M984.947632,615.671387 
	C964.318359,616.062378 943.691956,616.052490 923.065674,615.983093 
	C918.616211,615.968140 914.596497,615.151123 912.927917,610.088867 
	C911.017151,604.291870 914.749023,599.019409 921.030212,599.010376 
	C940.659607,598.982117 960.290588,598.870422 979.917236,599.104065 
	C984.079163,599.153625 985.224365,598.083374 985.104736,593.913879 
	C984.789795,582.943604 984.989441,571.958557 984.944702,560.516113 
	C987.828003,560.486328 987.960022,562.781921 987.971069,564.942810 
	C988.027222,575.916687 987.925110,586.891785 988.033630,597.864929 
	C988.071960,601.746155 985.799622,602.031433 982.826050,602.024292 
	C963.039368,601.976685 943.252197,602.053772 923.465820,601.958313 
	C919.097839,601.937195 916.151428,603.020264 915.420776,607.941467 
	C915.080566,610.232422 915.487915,611.328735 917.637451,612.072632 
	C919.722046,612.794067 921.805420,613.021606 923.987671,613.017944 
	C942.610535,612.986572 961.233643,612.962219 979.856018,613.059448 
	C981.687134,613.068970 984.484741,611.708435 984.947632,615.671387 
z"></path>
    <path fill="#C5853A" opacity="1.000000" stroke="none" d="
M984.947632,827.671387 
	C963.462891,828.062317 941.980957,828.050842 920.499207,827.984558 
	C915.724792,827.969788 912.416504,825.313599 912.139709,820.728638 
	C911.924438,817.163086 913.208740,813.993469 917.021484,812.453186 
	C918.669617,811.787415 920.291260,812.025146 921.917542,812.022278 
	C941.402039,811.987854 960.887573,811.901184 980.370361,812.087646 
	C984.043640,812.122742 985.193237,811.274170 985.097290,807.450439 
	C984.817627,796.299500 984.989380,785.137268 984.944702,773.516113 
	C988.103333,773.610352 987.965515,776.153625 987.976624,778.451233 
	C988.027527,788.940796 987.868225,799.433228 988.066223,809.919250 
	C988.141785,813.922058 986.579895,815.084167 982.760498,815.059631 
	C962.780701,814.931335 942.799744,814.991211 922.819153,815.014771 
	C921.029358,815.016846 919.053406,814.524109 917.595398,816.026367 
	C915.780151,817.896851 914.602844,820.338745 915.345032,822.779358 
	C916.092224,825.236694 918.742554,824.995239 920.904785,824.995972 
	C940.552368,825.002441 960.200073,824.963745 979.847168,825.059631 
	C981.679749,825.068542 984.481873,823.703369 984.947632,827.671387 
z"></path>
    <path fill="#C5853A" opacity="1.000000" stroke="none" d="
M984.947632,402.671326 
	C963.985840,403.062378 943.026978,403.031555 922.068054,402.999756 
	C916.088440,402.990662 912.278870,399.842499 912.047058,394.722382 
	C911.838074,390.105988 916.246338,386.145203 922.028076,386.029419 
	C928.346863,385.902893 934.670044,386.000092 940.991333,386.000031 
	C954.299255,385.999878 967.608643,385.896454 980.914185,386.073547 
	C984.181213,386.117035 985.133484,385.186615 985.073853,381.915192 
	C984.873657,370.939697 984.989380,359.958496 984.944702,348.516113 
	C988.106995,348.611664 987.964905,351.158203 987.976624,353.457214 
	C988.028381,363.622528 987.862244,373.791046 988.067017,383.952484 
	C988.148621,388.000275 986.501160,389.083130 982.719299,389.058136 
	C963.555481,388.931274 944.390259,388.962585 925.225891,389.033112 
	C921.570679,389.046539 917.775269,389.166718 916.024414,393.408722 
	C914.141541,397.970398 915.396667,399.975403 920.348145,399.985901 
	C937.346313,400.021942 954.344543,399.999847 971.342773,400.000092 
	C974.675781,400.000153 978.008850,399.985901 981.341675,400.007996 
	C982.981445,400.018890 984.865295,399.705231 984.947632,402.671326 
z"></path>
    <path fill="#C5853A" opacity="1.000000" stroke="none" d="
M984.947632,189.671326 
	C963.629395,190.062347 942.314026,190.053635 920.998779,189.988251 
	C913.115295,189.964081 910.065674,184.266937 913.855469,177.326309 
	C915.664001,174.014206 918.416138,173.999939 921.417847,173.999969 
	C941.068970,174.000092 960.721008,173.901901 980.370361,174.087570 
	C984.043701,174.122284 985.193176,173.274109 985.097290,169.450424 
	C984.817688,158.299500 984.989441,147.137253 984.944702,135.516113 
	C988.294861,135.779053 987.972534,138.507202 987.982300,140.946289 
	C988.023804,151.263229 987.869202,161.582901 988.065430,171.896271 
	C988.140991,175.868484 986.634460,177.084534 982.788879,177.060532 
	C962.155457,176.931702 941.520874,176.995255 920.886658,177.006760 
	C918.635864,177.008011 916.490356,176.487152 915.716919,179.984207 
	C914.476990,185.590363 915.125793,186.967484 920.944031,186.981567 
	C940.579651,187.029068 960.215698,186.963791 979.850952,187.059479 
	C981.682800,187.068405 984.483032,185.705551 984.947632,189.671326 
z"></path>
    <path fill="#C5853A" opacity="1.000000" stroke="none" d="
M984.947632,134.671326 
	C973.624573,135.062347 962.304321,135.048553 950.984253,134.992554 
	C945.391724,134.964905 942.178955,131.968536 942.005188,126.724480 
	C941.860168,122.349815 946.095825,118.081184 950.966309,118.030785 
	C960.788147,117.929138 970.617310,117.810982 980.431946,118.095383 
	C984.222778,118.205223 985.110657,117.094673 985.088074,113.391174 
	C984.920410,85.921394 984.989502,58.450188 984.944702,30.516094 
	C987.836121,30.489523 987.969543,32.793297 987.972473,34.957188 
	C988.009583,62.287079 987.971069,89.617088 988.025513,116.946930 
	C988.032471,120.439400 986.134949,121.047470 983.226379,121.026703 
	C973.228088,120.955322 963.228455,121.060181 953.230713,120.957695 
	C950.726074,120.932030 948.812256,121.575340 947.008728,123.392784 
	C945.131531,125.284409 944.437744,127.393349 945.269348,129.725220 
	C946.068115,131.965088 948.317139,131.991379 950.345459,131.993454 
	C960.344238,132.003677 970.343445,131.953964 980.341431,132.042908 
	C982.091248,132.058487 984.637817,130.992111 984.947632,134.671326 
z"></path>
    <path fill="#C5853A" opacity="1.000000" stroke="none" d="
M984.947632,559.671387 
	C973.634827,560.062378 962.321411,559.855103 951.016541,560.078979 
	C945.850708,560.181213 942.272644,557.546021 942.053223,551.377869 
	C941.892883,546.868896 945.595215,544.003784 951.070984,544.001282 
	C960.885010,543.996765 970.705566,543.792053 980.509766,544.102234 
	C984.429626,544.226257 985.099915,542.892883 985.079712,539.320679 
	C984.928101,512.540955 984.989441,485.760010 984.944702,458.516113 
	C987.827759,458.485992 987.968994,460.781860 987.972046,462.941895 
	C988.010132,489.542969 987.969788,516.144165 988.029968,542.745178 
	C988.037415,546.059204 986.525818,547.061462 983.445496,547.032837 
	C973.470947,546.940002 963.494934,546.998413 953.519531,547.001099 
	C952.355896,547.001465 951.153564,546.830078 950.035950,547.061218 
	C946.672180,547.756775 944.851379,549.832581 945.024414,553.369629 
	C945.199707,556.951050 947.913757,556.964966 950.429688,556.977661 
	C960.404846,557.028015 970.380798,556.954712 980.355469,557.042358 
	C982.103271,557.057800 984.641785,556.001404 984.947632,559.671387 
z"></path>
    <path fill="#C5853A" opacity="1.000000" stroke="none" d="
M984.947632,772.671387 
	C973.788513,773.062256 962.632263,773.020630 951.476013,773.005676 
	C947.976868,773.001038 945.190613,771.758240 943.297485,768.695251 
	C941.312988,765.484436 941.675354,762.443970 943.848022,759.521729 
	C945.859619,756.816101 948.679321,755.970032 951.935059,755.984741 
	C961.426941,756.027710 970.924744,755.812317 980.408508,756.093018 
	C984.161194,756.204102 985.115417,755.155945 985.090637,751.412537 
	C984.914978,724.935791 984.989380,698.457336 984.944702,671.516113 
	C987.833313,671.488525 987.969177,673.789551 987.972290,675.952393 
	C988.010010,702.263000 987.969177,728.573669 988.027832,754.884216 
	C988.035522,758.325745 986.254639,759.051575 983.294617,759.028931 
	C973.137329,758.951172 962.979004,758.987305 952.821106,759.009399 
	C950.332153,759.014832 947.696350,759.005005 946.136108,761.368835 
	C943.021057,766.087769 945.002441,769.835327 950.872620,769.945251 
	C960.694092,770.129211 970.521851,769.952576 980.345947,770.042725 
	C982.095215,770.058777 984.639160,768.995178 984.947632,772.671387 
z"></path>
    <path fill="#C5853A" opacity="1.000000" stroke="none" d="
M30.043139,985.307800 
	C58.129585,984.923035 86.217880,984.903687 114.305008,985.076599 
	C117.593254,985.096802 118.099113,983.883301 118.055664,981.030212 
	C117.908905,971.392273 117.984253,961.750549 118.006577,952.110413 
	C118.017937,947.208008 121.052650,942.927795 125.059303,942.051819 
	C128.662857,941.263977 132.952408,943.959229 134.892151,948.632568 
	C129.055969,943.899841 126.236038,943.741943 122.480415,947.956848 
	C120.942070,949.683167 120.999832,951.553589 120.999863,953.542480 
	C121.000008,963.374939 120.895248,973.209167 121.053711,983.039062 
	C121.112343,986.676514 119.854515,988.066895 116.133270,988.053284 
	C88.802673,987.953491 61.471527,988.008301 34.140591,987.978577 
	C32.446819,987.976746 30.215889,988.642761 30.043139,985.307800 
z"></path>
    <path fill="#C5853A" opacity="1.000000" stroke="none" d="
M458.043091,985.307861 
	C485.527985,984.922852 513.014648,984.917175 540.500488,985.061707 
	C543.466187,985.077332 544.090515,984.033264 544.053589,981.318665 
	C543.917419,971.324829 544.268921,961.317749 543.887085,951.336731 
	C543.694763,946.308411 545.635376,942.992065 550.169189,942.216431 
	C554.613892,941.456116 558.639282,943.104736 559.892212,948.632812 
	C558.430298,948.964172 558.130554,947.497620 557.213745,946.952942 
	C555.104248,945.699707 552.792480,944.182251 550.269897,945.546875 
	C547.950684,946.801453 546.903992,948.885010 546.944458,951.744690 
	C547.087830,961.892151 546.849731,972.046143 547.072388,982.190735 
	C547.164246,986.375305 546.052795,988.116638 541.496704,988.085999 
	C515.209045,987.909302 488.919617,988.017212 462.630951,987.960999 
	C460.876770,987.957214 458.341278,988.977478 458.043091,985.307861 
z"></path>
    <path fill="#C5853A" opacity="1.000000" stroke="none" d="
M246.043137,985.307861 
	C273.142242,984.922974 300.243286,984.899658 327.342987,985.078186 
	C330.688019,985.100159 331.088196,983.784058 331.051300,980.989807 
	C330.919556,971.015198 331.062592,961.037292 330.965302,951.061951 
	C330.932220,947.669373 331.656616,944.609985 334.858093,943.162415 
	C338.426514,941.548889 342.181000,941.059143 345.257233,945.017578 
	C344.463593,945.992920 343.548920,945.508179 342.565674,945.359070 
	C336.890869,944.498291 334.023315,946.918518 334.007874,952.555481 
	C333.980042,962.720154 333.897156,972.886475 334.053925,983.048767 
	C334.110199,986.694519 332.836365,988.067627 329.124420,988.053345 
	C302.796570,987.952209 276.468140,988.008545 250.139923,987.978577 
	C248.446228,987.976624 246.215637,988.642456 246.043137,985.307861 
z"></path>
    <path fill="#C5853A" opacity="1.000000" stroke="none" d="
M671.043091,985.307739 
	C698.181274,984.922791 725.321228,984.919373 752.460449,985.059570 
	C755.364990,985.074646 756.096802,984.132202 756.056580,981.361755 
	C755.911316,971.373169 755.949463,961.380798 756.026062,951.390625 
	C756.055298,947.574341 757.376892,944.582581 761.280029,942.852173 
	C764.902771,941.246277 767.599060,942.090698 770.259155,945.021484 
	C759.000000,945.436035 759.000061,945.436035 758.999939,957.338989 
	C758.999817,965.983276 758.912659,974.628845 759.042542,983.271179 
	C759.093018,986.635315 757.927246,988.054321 754.421326,988.043396 
	C727.823730,987.960571 701.225830,988.000122 674.627991,987.993835 
	C672.977295,987.993408 671.122192,988.251648 671.043091,985.307739 
z"></path>
    <path fill="#C5853A" opacity="1.000000" stroke="none" d="
M944.536743,343.974731 
	C940.802795,341.675323 941.836365,338.236938 943.121765,335.040314 
	C944.368469,331.939819 947.147278,330.970673 950.385986,330.984619 
	C960.381775,331.027649 970.382324,330.828400 980.371460,331.089478 
	C984.061951,331.185944 985.120605,330.253754 985.094238,326.446472 
	C984.910461,299.958466 984.989441,273.468658 984.944702,246.516113 
	C987.827087,246.486038 987.968872,248.781281 987.972046,250.941101 
	C988.010315,277.205750 987.969666,303.470581 988.030090,329.735138 
	C988.037720,333.039703 986.545654,334.065063 983.456543,334.032990 
	C974.148560,333.936249 964.838867,333.999481 955.529846,333.999939 
	C946.449524,334.000397 945.790588,334.585388 944.536743,343.974731 
z"></path>
    <path fill="#C5853A" opacity="1.000000" stroke="none" d="
M984.947632,670.671387 
	C973.955750,671.062317 962.961548,670.817688 951.979553,671.080261 
	C945.426392,671.236938 942.669678,668.682495 942.062744,662.821411 
	C941.582092,658.179688 946.137634,654.122742 951.900757,654.038452 
	C961.390259,653.899536 970.888184,653.822754 980.372192,654.089111 
	C984.059753,654.192688 985.196716,653.266296 985.096985,649.447693 
	C984.814514,638.631348 984.989441,627.803040 984.944702,616.516113 
	C988.099426,616.608643 987.965332,619.148315 987.976624,621.444214 
	C988.027527,631.756897 987.914734,642.071045 988.044983,652.382324 
	C988.088867,655.859741 986.706177,657.090759 983.304932,657.043457 
	C973.991760,656.914001 964.675659,657.016235 955.360779,656.990601 
	C952.302185,656.982239 949.450317,657.485718 946.992615,659.500671 
	C945.079224,661.069397 944.599365,663.125549 945.132935,665.332703 
	C945.720459,667.763000 947.884766,667.972290 949.913269,667.979736 
	C960.059753,668.016846 970.206726,667.954590 980.352600,668.042419 
	C982.100769,668.057617 984.640991,666.999573 984.947632,670.671387 
z"></path>
    <path fill="#C5853A" opacity="1.000000" stroke="none" d="
M984.947632,245.671326 
	C974.143921,246.062347 963.343140,246.035721 952.542297,245.998260 
	C946.060791,245.975800 942.093750,242.813568 942.004150,237.619766 
	C941.919983,232.742325 946.459229,229.012833 952.540833,229.003754 
	C962.013306,228.989609 971.489136,228.856140 980.956421,229.077332 
	C984.288635,229.155167 985.122437,228.083679 985.069824,224.879700 
	C984.884338,213.582199 984.989319,202.279907 984.944702,190.516113 
	C988.102722,190.610168 987.965820,193.152832 987.976624,195.450119 
	C988.026733,206.104385 987.915283,216.760040 988.045410,227.412949 
	C988.088318,230.924820 986.638672,232.084213 983.267700,232.042908 
	C973.280640,231.920471 963.291016,232.011673 953.302429,231.990051 
	C951.281433,231.985687 949.428406,232.042435 947.785034,233.643051 
	C945.880554,235.498093 944.307434,237.446503 945.123047,240.164719 
	C945.956726,242.943375 948.683655,242.904556 950.882385,242.938904 
	C959.703552,243.076691 968.528076,242.997757 977.351318,243.000610 
	C979.016052,243.001144 980.681152,243.034576 982.345337,243.006882 
	C983.904907,242.980942 984.928528,243.517639 984.947632,245.671326 
z"></path>
    <path fill="#C5853A" opacity="1.000000" stroke="none" d="
M773.043091,985.307739 
	C784.673401,984.923035 796.307678,984.844727 807.935791,985.073853 
	C811.232788,985.138794 812.093567,984.134277 812.070435,980.900879 
	C811.929138,961.124756 811.993958,941.347229 812.003662,921.570129 
	C812.006531,915.756775 813.721863,912.944275 818.596497,912.274780 
	C823.080444,911.658936 826.489136,913.682434 827.892212,918.632690 
	C827.285339,918.677368 826.483948,918.491333 826.229858,918.013977 
	C824.546265,914.850830 822.068115,914.945251 819.075378,915.802002 
	C815.949341,916.696899 814.957581,918.619934 814.967407,921.695618 
	C815.031677,941.831604 814.878540,961.969238 815.091553,982.103210 
	C815.140503,986.726318 813.687378,988.216309 809.081909,988.090332 
	C798.605591,987.803711 788.115723,988.041443 777.632202,987.959229 
	C775.876282,987.945496 773.341492,988.978210 773.043091,985.307739 
z"></path>
    <path fill="#C5853A" opacity="1.000000" stroke="none" d="
M135.043137,985.307800 
	C146.673538,984.923096 158.307755,984.844849 169.935913,985.073975 
	C173.233215,985.138916 174.093491,984.133728 174.070404,980.900757 
	C173.929230,961.124634 174.177597,941.344421 173.882492,921.571716 
	C173.802795,916.232178 176.281372,913.213867 180.719055,912.320923 
	C185.028336,911.453674 188.724976,913.406982 189.892212,918.633179 
	C187.566956,918.111389 186.333557,915.664062 183.614807,915.296204 
	C179.373138,914.722229 177.013046,916.413330 177.008926,920.637695 
	C176.989334,940.784851 177.002380,960.931946 176.998703,981.079102 
	C176.997452,987.990173 176.990677,987.995544 170.105621,987.998779 
	C159.948792,988.003601 149.791626,988.042786 139.635483,987.958984 
	C137.879059,987.944458 135.342377,988.980469 135.043137,985.307800 
z"></path>
    <path fill="#C5853A" opacity="1.000000" stroke="none" d="
M560.043091,985.307739 
	C571.679749,984.922974 583.320496,984.840576 594.954773,985.075806 
	C598.288391,985.143127 599.090576,984.079041 599.068481,980.877747 
	C598.931824,961.090820 599.138245,941.300720 598.888794,921.515991 
	C598.835876,917.322449 600.758667,914.850952 603.846863,913.182129 
	C607.064453,911.443359 610.415588,911.883484 613.258240,915.025940 
	C613.254028,915.391418 613.113403,915.507446 612.956787,915.536377 
	C602.000122,917.557251 602.000000,917.556702 602.000000,929.330627 
	C602.000000,946.945007 601.857727,964.561279 602.094971,982.172485 
	C602.158325,986.870850 600.545593,988.204224 596.027710,988.086609 
	C585.565857,987.814209 575.091797,988.041138 564.623474,987.959595 
	C562.868774,987.945984 560.339111,988.972290 560.043091,985.307739 
z"></path>
    <path fill="#C5853A" opacity="1.000000" stroke="none" d="
M348.043091,985.307800 
	C359.363861,984.923035 370.689178,984.826904 382.006592,985.080811 
	C385.441467,985.157898 386.083160,983.929871 386.062958,980.814758 
	C385.937500,961.498291 385.958069,942.180420 386.030365,922.863403 
	C386.047791,918.206238 387.176239,914.270630 392.559204,912.655579 
	C396.224365,911.555969 398.467682,913.103943 400.933594,915.619812 
	C389.404663,916.153076 389.000153,916.575439 389.000061,928.569153 
	C388.999878,946.395813 388.870239,964.224121 389.089386,982.048096 
	C389.145538,986.614197 387.800507,988.231262 383.124603,988.092712 
	C372.970642,987.791809 362.801270,988.042908 352.639099,987.958862 
	C350.882141,987.944336 348.343384,988.982788 348.043091,985.307800 
z"></path>
    <path fill="#C5853A" opacity="1.000000" stroke="none" d="
M190.043137,985.307739 
	C201.862061,984.922791 213.684036,984.868164 225.501877,985.063599 
	C228.471695,985.112732 229.093414,984.032288 229.053589,981.319763 
	C228.914261,971.830872 228.994675,962.338562 229.001938,952.847595 
	C229.006302,947.152893 231.949951,942.538818 236.351501,942.100708 
	C241.512817,941.586914 244.540298,944.476013 245.891937,949.632446 
	C244.957260,949.886108 244.251236,949.521179 243.878906,948.669861 
	C242.539398,945.607117 239.965164,944.130676 237.026886,945.289429 
	C234.098755,946.444214 231.899887,948.719543 231.953369,952.532898 
	C232.093613,962.530884 231.853683,972.535278 232.070709,982.530518 
	C232.159515,986.620544 230.849380,988.161255 226.639145,988.074463 
	C215.810501,987.851074 204.974091,988.020813 194.141022,987.977722 
	C192.446793,987.970947 190.215866,988.643250 190.043137,985.307739 
z"></path>
    <path fill="#C5853A" opacity="1.000000" stroke="none" d="
M616.043091,985.307739 
	C627.501160,984.922852 638.962036,984.877930 650.419495,985.058289 
	C653.252747,985.102844 654.104797,984.248779 654.059631,981.417786 
	C653.903381,971.620056 653.869385,961.815918 654.042114,952.018738 
	C654.180359,944.177612 660.148376,940.165039 666.920654,943.028442 
	C669.297668,944.033508 670.210266,946.058472 670.892212,948.632812 
	C667.850769,947.228394 665.196289,943.521545 661.288635,945.603699 
	C657.100342,947.835327 656.952454,952.292908 656.981812,956.578735 
	C657.042175,965.405945 656.886353,974.235962 657.053833,983.060425 
	C657.123169,986.714783 655.820251,988.109497 652.115906,988.054871 
	C641.458435,987.897888 630.797058,988.020813 620.137390,987.977722 
	C618.443420,987.970886 616.215149,988.640381 616.043091,985.307739 
z"></path>
    <path fill="#C5853A" opacity="1.000000" stroke="none" d="
M403.043091,985.307800 
	C414.831421,984.922913 426.622467,984.880859 438.410217,985.057312 
	C441.228912,985.099548 442.103973,984.272278 442.060211,981.428345 
	C441.904358,971.299988 442.065887,961.167175 441.963013,951.037476 
	C441.928497,947.637024 442.675934,944.600586 445.869965,943.156067 
	C449.438110,941.542358 453.185669,941.067871 456.257233,945.017578 
	C455.463715,945.992859 454.549133,945.508423 453.565948,945.359253 
	C447.891602,944.498413 445.023376,946.918335 445.007904,952.553894 
	C444.980011,962.717590 444.897522,972.882996 445.053833,983.044312 
	C445.109863,986.685059 443.848816,988.107666 440.129120,988.055054 
	C429.134521,987.899231 418.136139,988.020264 407.139496,987.977722 
	C405.445343,987.971191 403.215637,988.641907 403.043091,985.307800 
z"></path>
    <path fill="#C5853A" opacity="1.000000" stroke="none" d="
M828.043091,985.307739 
	C839.810791,984.922852 851.582642,984.834656 863.347656,985.079712 
	C866.683838,985.149231 867.088562,983.796570 867.051392,981.004272 
	C866.918884,971.058777 867.105408,961.108704 866.947571,951.163940 
	C866.885376,947.245911 868.487732,944.733154 871.862793,943.012085 
	C875.440613,941.187561 878.468201,941.805481 881.259155,945.021545 
	C870.000061,945.439941 870.000122,945.439941 870.000000,957.311951 
	C869.999939,965.779297 869.875122,974.249390 870.056702,982.712830 
	C870.137085,986.459473 869.047852,988.140381 864.991882,988.067200 
	C854.037659,987.869507 843.077515,988.019775 832.119873,987.978516 
	C830.427612,987.972168 828.211609,988.626953 828.043091,985.307739 
z"></path>
    <path fill="#C5853A" opacity="1.000000" stroke="none" d="
M944.536743,454.974731 
	C940.804932,452.675934 941.835632,449.239471 943.121033,446.042267 
	C944.367615,442.941620 947.144165,441.971405 950.382019,441.984802 
	C960.542297,442.026855 970.705078,441.881134 980.862061,442.069550 
	C984.059998,442.128845 985.140686,441.309967 985.078125,437.957153 
	C984.867004,426.634613 984.989319,415.305847 984.944702,403.516113 
	C987.822571,403.483887 987.959595,405.774445 987.970764,407.932617 
	C988.027222,418.889435 987.938599,429.847198 988.030334,440.803528 
	C988.058350,444.158295 986.428406,445.061157 983.397705,445.031525 
	C974.101624,444.940521 964.804138,444.999542 955.507202,444.999939 
	C946.460083,445.000336 945.788635,445.597748 944.536743,454.974731 
z"></path>
    <path fill="#C5853A" opacity="1.000000" stroke="none" d="
M944.539429,879.967896 
	C941.488159,877.987000 941.414062,875.200256 942.968872,872.041260 
	C944.534363,868.860474 946.730896,866.940125 950.510742,866.971497 
	C960.652344,867.055603 970.797852,866.867065 980.935852,867.075745 
	C984.237732,867.143677 985.126465,866.132812 985.071777,862.896667 
	C984.880493,851.593689 984.989319,840.285583 984.944702,828.516113 
	C987.817993,828.482361 987.959412,830.768677 987.970581,832.924866 
	C988.027283,843.868408 987.939148,854.812866 988.030823,865.755920 
	C988.058472,869.061890 986.525330,870.063049 983.454407,870.032471 
	C974.003906,869.938232 964.551758,869.997620 955.100281,870.000549 
	C946.661804,870.003174 945.479675,871.097046 944.539429,879.967896 
z"></path>
    <path fill="#C5853A" opacity="1.000000" stroke="none" d="
M984.947632,347.671326 
	C974.293335,348.062347 963.641907,348.019470 952.990479,348.007477 
	C949.976013,348.004089 947.129089,347.591187 944.752197,344.989258 
	C947.744507,342.934875 950.713135,345.220062 953.848572,345.110596 
	C962.836670,344.796814 971.842896,344.973572 980.841675,345.024200 
	C982.526123,345.033691 984.769287,344.328186 984.947632,347.671326 
z"></path>
    <path fill="#C5853A" opacity="1.000000" stroke="none" d="
M984.947632,883.671387 
	C973.950439,884.062317 962.955933,883.982605 951.962036,884.033752 
	C949.167175,884.046753 946.741211,883.521545 944.748962,880.990234 
	C957.346558,880.807434 970.094299,880.916687 982.842102,881.032837 
	C984.288086,881.046021 984.913696,881.876709 984.947632,883.671387 
z"></path>
    <path fill="#C5853A" opacity="1.000000" stroke="none" d="
M984.947632,457.671295 
	C973.372681,458.062347 961.800598,458.035645 950.228516,457.995514 
	C948.294189,457.988800 946.187439,458.465363 944.767578,455.992859 
	C951.836731,454.199341 959.145264,455.288452 966.413086,455.033508 
	C971.389282,454.858978 976.376587,454.990387 981.358826,455.007721 
	C982.997192,455.013428 984.867554,454.719177 984.947632,457.671295 
z"></path>
    <path fill="#C5853A" opacity="1.000000" stroke="none" d="
M613.495605,915.961304 
	C615.657837,916.586792 614.903687,918.870361 615.892212,920.640259 
	C613.241455,920.377136 613.756531,918.077393 613.495605,915.961304 
z"></path>
    <path fill="#C5853A" opacity="1.000000" stroke="none" d="
M345.495667,945.961243 
	C347.657715,946.586975 346.903778,948.870361 347.892151,950.640259 
	C345.241455,950.377014 345.756470,948.077271 345.495667,945.961243 
z"></path>
    <path fill="#C5853A" opacity="1.000000" stroke="none" d="
M770.504639,945.937012 
	C772.184082,946.406128 772.443970,947.937378 772.893433,949.658020 
	C770.761963,949.585266 770.290649,948.087158 770.504639,945.937012 
z"></path>
    <path fill="#C5853A" opacity="1.000000" stroke="none" d="
M881.504639,945.937012 
	C883.184082,946.406128 883.443970,947.937378 883.893433,949.658020 
	C881.761963,949.585266 881.290649,948.087158 881.504639,945.937012 
z"></path>
    <path fill="#C5853A" opacity="1.000000" stroke="none" d="
M401.043274,916.262451 
	C402.046021,916.447632 402.933563,917.061401 402.894897,918.673828 
	C401.354462,918.866272 400.951172,917.921143 401.043274,916.262451 
z"></path>
    <path fill="#C5853A" opacity="1.000000" stroke="none" d="
M456.518585,945.903442 
	C457.512665,945.941650 458.022980,946.470093 457.894501,947.697876 
	C456.821014,947.826355 456.043671,947.455811 456.518585,945.903442 
z"></path>
    <path fill="#C5853A" opacity="1.000000" stroke="none" d="
M853.000000,697.000000 
	C853.000000,745.828613 853.000793,794.157227 852.999268,842.485840 
	C852.999023,850.683777 850.660706,852.999390 842.386292,852.999390 
	C685.068298,853.000183 527.750366,852.998657 370.432373,853.011963 
	C367.941040,853.012207 365.530365,853.016724 363.241486,851.700439 
	C358.911896,849.210754 357.644714,843.893738 360.646637,839.929932 
	C361.444336,838.876587 362.487335,838.007446 363.429382,837.065369 
	C521.333923,679.159851 679.239319,521.255249 837.146118,363.352112 
	C839.975586,360.522797 842.604370,357.649017 847.403015,359.710052 
	C851.064392,361.282623 852.627258,363.890411 852.977051,367.546387 
	C853.103455,368.867584 853.000000,370.210876 853.000000,371.544067 
	C853.000061,479.862701 853.000000,588.181335 853.000000,697.000000 
z"></path>
    <path fill="#FFFFFF" opacity="1.000000" stroke="none" d="
M836.000000,660.000000 
	C836.000000,717.322571 835.948914,774.145264 836.103088,830.967407 
	C836.114624,835.218262 834.923645,836.095154 830.851379,836.092102 
	C685.545654,835.982117 540.239868,836.000000 394.934082,836.000000 
	C393.447601,836.000000 391.961090,836.000000 390.474609,836.000000 
	C390.184418,835.628174 389.894257,835.256409 389.604065,834.884583 
	C538.000427,686.488281 686.396790,538.091919 834.793091,389.695618 
	C835.195374,389.902435 835.597717,390.109253 836.000000,390.316071 
	C836.000000,480.044067 836.000000,569.772034 836.000000,660.000000 
z"></path>
  </symbol>
</svg>