<svg width="0" height="0" class="hidden">
  <symbol fill="none" xmlns="http://www.w3.org/2000/svg" viewBox="0 0 24 24" id="menu">
    <path d="M4 6H20M4 12H20M4 18H20" stroke="#4A5568" stroke-linecap="round" stroke-linejoin="round" stroke-width="2"></path>
  </symbol>
  <symbol xmlns="http://www.w3.org/2000/svg" version="1.1" viewBox="0 0 1000 1000" id="Triangle2">
    <path d="M 494.826 494.750 C 1.152 988.500, 1.152 988.500, 0.826 994 C 0.500 999.500, 0.500 999.500, 500.250 999.751 C 899.727 999.952, 1000.001 999.751, 1000.004 998.751 C 1000.006 998.063, 1000.004 773.894, 1000 500.598 C 999.994 135.718, 999.695 3.337, 998.874 2.348 C 998.230 1.573, 995.788 1, 993.127 1 C 988.499 1, 988.499 1, 494.826 494.750 M 507 507.507 C 29.500 985.015, 29.500 985.015, 73.500 984.757 C 117.500 984.500, 117.500 984.500, 118 965.661 C 118.500 946.822, 118.500 946.822, 121.306 944.411 C 124.866 941.352, 128.134 941.352, 131.694 944.411 C 134.500 946.823, 134.500 946.823, 134.811 965.933 C 135.122 985.043, 135.122 985.043, 154.311 984.771 C 173.500 984.500, 173.500 984.500, 174.033 950 C 174.326 931.025, 174.664 915.399, 174.783 915.276 C 174.902 915.152, 176.328 914.365, 177.950 913.526 C 182.115 911.372, 184.715 911.624, 187.545 914.455 C 190 916.909, 190 916.909, 190 950.976 C 190 985.043, 190 985.043, 209.250 984.772 C 228.500 984.500, 228.500 984.500, 229 965.661 C 229.500 946.822, 229.500 946.822, 232.306 944.411 C 236.060 941.185, 239.502 941.349, 243.077 944.923 C 246 947.846, 246 947.846, 246 966.434 C 246 985.022, 246 985.022, 288.250 984.761 C 330.500 984.500, 330.500 984.500, 331 965.400 C 331.548 944.472, 331.823 943.499, 337.495 942.435 C 341.738 941.639, 344.337 943.083, 346.370 947.367 C 347.680 950.127, 348 954.168, 348 967.923 C 348 985.044, 348 985.044, 366.750 984.772 C 385.500 984.500, 385.500 984.500, 386 951 C 386.275 932.575, 386.866 916.934, 387.313 916.243 C 388.661 914.161, 393.973 911.857, 395.968 912.490 C 396.995 912.816, 398.997 913.997, 400.418 915.114 C 403 917.145, 403 917.145, 403 951.094 C 403 985.043, 403 985.043, 422.250 984.772 C 441.500 984.500, 441.500 984.500, 442 965.283 C 442.554 943.987, 442.736 943.404, 449.155 942.362 C 451.988 941.903, 453.190 942.272, 455.336 944.260 C 458 946.729, 458 946.729, 458 965.875 C 458 985.021, 458 985.021, 500.750 984.761 C 543.500 984.500, 543.500 984.500, 544 965.159 C 544.487 946.326, 544.562 945.769, 546.861 943.909 C 550.149 941.250, 554.567 941.476, 557.545 944.455 C 559.980 946.889, 560 947.065, 560 965.976 C 560 985.043, 560 985.043, 579.250 984.772 C 598.500 984.500, 598.500 984.500, 599 950.902 C 599.538 914.768, 599.518 914.894, 604.893 912.851 C 608.431 911.505, 612.537 913.504, 614.430 917.493 C 615.755 920.287, 616 925.805, 616 952.923 C 616 985.044, 616 985.044, 634.750 984.772 C 653.500 984.500, 653.500 984.500, 654 965.661 C 654.500 946.822, 654.500 946.822, 657.425 944.309 C 659.766 942.297, 661.050 941.909, 663.856 942.364 C 667.747 942.995, 669.952 944.736, 670.490 947.603 C 670.686 948.646, 670.881 957.492, 670.923 967.261 C 671 985.022, 671 985.022, 713.250 984.761 C 755.500 984.500, 755.500 984.500, 756 965.661 C 756.500 946.822, 756.500 946.822, 759.306 944.411 C 763.186 941.077, 766.498 941.327, 770.056 945.223 C 773 948.446, 773 948.446, 773 966.744 C 773 985.043, 773 985.043, 792.250 984.772 C 811.500 984.500, 811.500 984.500, 812 950.500 C 812.275 931.800, 812.881 915.910, 813.347 915.188 C 814.655 913.163, 819.042 911.850, 822.191 912.542 C 827.737 913.760, 828 915.545, 828 951.972 C 828 985.043, 828 985.043, 847.250 984.772 C 866.500 984.500, 866.500 984.500, 867 965.661 C 867.500 946.822, 867.500 946.822, 870.306 944.411 C 874.186 941.077, 877.498 941.327, 881.056 945.223 C 884 948.446, 884 948.446, 884 966.732 C 884 985.018, 884 985.018, 934.250 984.759 C 984.500 984.500, 984.500 984.500, 984.759 934.250 C 985.018 884, 985.018 884, 966.453 884 C 947.887 884, 947.887 884, 944.944 880.777 C 941.325 876.815, 941.229 874.070, 944.571 870.099 C 947.141 867.044, 947.141 867.044, 965.821 866.772 C 984.500 866.500, 984.500 866.500, 984.772 847.250 C 985.043 828, 985.043 828, 950.976 828 C 916.909 828, 916.909 828, 914.455 825.545 C 911.475 822.566, 911.250 818.148, 913.911 814.861 C 915.821 812.500, 915.821 812.500, 950.161 812 C 984.500 811.500, 984.500 811.500, 984.772 792.250 C 985.043 773, 985.043 773, 966.445 773 C 947.846 773, 947.846 773, 944.923 770.077 C 941.349 766.502, 941.185 763.060, 944.411 759.306 C 946.822 756.500, 946.822 756.500, 965.661 756 C 984.500 755.500, 984.500 755.500, 984.761 713.250 C 985.022 671, 985.022 671, 966.122 671 C 944.839 671, 943.432 670.581, 942.367 663.925 C 941.906 661.046, 942.284 659.781, 944.309 657.425 C 946.822 654.500, 946.822 654.500, 965.661 654 C 984.500 653.500, 984.500 653.500, 984.772 634.750 C 985.044 616, 985.044 616, 952.587 616 C 933.535 616, 919.052 615.590, 917.520 615.008 C 914.517 613.866, 912.095 608.956, 912.776 605.393 C 913.032 604.052, 914.373 602.065, 915.756 600.977 C 918.140 599.102, 919.904 599, 950.053 599 C 967.534 599, 982.548 598.727, 983.418 598.393 C 984.783 597.869, 985 595.198, 985 578.893 C 985 560, 985 560, 966.111 560 C 949.603 560, 946.952 559.779, 945.080 558.250 C 941.943 555.686, 941.313 550.071, 943.815 546.977 C 945.794 544.531, 946.058 544.494, 965.159 544 C 984.500 543.500, 984.500 543.500, 984.761 500.750 C 985.021 458, 985.021 458, 965.699 458 C 946.376 458, 946.376 458, 944.093 454.912 C 942.344 452.546, 941.955 451.051, 942.432 448.513 C 943.499 442.821, 944.462 442.548, 965.400 442 C 984.500 441.500, 984.500 441.500, 984.772 422.250 C 985.043 403, 985.043 403, 951.445 403 C 917.846 403, 917.846 403, 914.923 400.077 C 911.876 397.030, 911.287 394.201, 913.023 390.957 C 915.266 386.765, 917.169 386.520, 951.500 386 C 984.500 385.500, 984.500 385.500, 984.772 366.750 C 985.044 348, 985.044 348, 967.569 348 C 957.274 348, 949.150 347.561, 947.797 346.932 C 943.907 345.122, 941.722 341.297, 942.428 337.532 C 943.500 331.819, 944.450 331.548, 965.400 331 C 984.500 330.500, 984.500 330.500, 984.761 288.311 C 985.022 246.121, 985.022 246.121, 965.922 245.811 C 946.823 245.500, 946.823 245.500, 944.411 242.694 C 941.352 239.134, 941.352 235.866, 944.411 232.306 C 946.822 229.500, 946.822 229.500, 965.661 229 C 984.500 228.500, 984.500 228.500, 984.772 209.250 C 985.043 190, 985.043 190, 952.087 190 C 933.640 190, 918.028 189.581, 916.626 189.048 C 912.808 187.596, 911.541 184.474, 912.913 179.895 C 913.541 177.799, 914.605 175.728, 915.278 175.292 C 915.950 174.856, 931.800 174.275, 950.500 174 C 984.500 173.500, 984.500 173.500, 984.771 154.310 C 985.043 135.119, 985.043 135.119, 965.431 134.810 C 946.202 134.506, 945.782 134.454, 943.910 132.139 C 941.083 128.645, 941.468 124.378, 944.923 120.923 C 947.846 118, 947.846 118, 965.954 118 C 979.519 118, 984.183 117.686, 984.542 116.750 C 984.806 116.063, 984.905 96.262, 984.761 72.749 C 984.500 29.999, 984.500 29.999, 507 507.507 M 600.252 600.252 C 336.266 864.238, 355.706 843.860, 361.929 850.083 C 364.858 853.012, 364.858 853.012, 606.893 852.756 C 837.719 852.512, 849.011 852.417, 850.714 850.714 C 852.417 849.011, 852.512 837.719, 852.756 606.893 C 853.012 364.858, 853.012 364.858, 850.083 361.929 C 843.860 355.706, 864.238 336.266, 600.252 600.252 M 612.249 612.251 C 490.012 734.489, 390 834.839, 390 835.251 C 390 835.663, 489.810 836, 611.800 836 C 782.978 836, 833.874 835.726, 834.800 834.800 C 835.726 833.874, 836 782.978, 836 611.800 C 836 489.810, 835.662 390, 835.249 390 C 834.836 390, 734.486 490.013, 612.249 612.251" stroke="none" fill="#c4843d" fill-rule="evenodd"></path>
    <path d="M 1.384 2.442 C 1.080 3.234, 0.981 4.618, 1.165 5.515 C 1.431 6.810, 2.106 6.513, 4.437 4.074 C 7.374 1, 7.374 1, 4.656 1 C 3.161 1, 1.688 1.649, 1.384 2.442 M 677.321 2.750 C 678.970 4.399, 687.651 4.515, 827.036 4.760 C 944.004 4.965, 975 5.279, 975 6.260 C 975 7.885, 7.880 975, 6.255 975 C 5.266 975, 4.958 916.226, 4.755 688.536 C 4.514 417.242, 4.407 401.979, 2.750 400.321 C 1.083 398.655, 1 412.617, 1 693.535 C 1 988.499, 1 988.499, 494.500 495 C 765.925 223.575, 988 1.388, 988 1.250 C 988 1.113, 917.704 1, 831.786 1 C 683.010 1, 675.655 1.083, 677.321 2.750 M 507 507.507 C 29.500 985.015, 29.500 985.015, 73.500 984.757 C 117.500 984.500, 117.500 984.500, 118 965.661 C 118.500 946.822, 118.500 946.822, 121.306 944.411 C 124.866 941.352, 128.134 941.352, 131.694 944.411 C 134.500 946.823, 134.500 946.823, 134.811 965.933 C 135.122 985.043, 135.122 985.043, 154.311 984.771 C 173.500 984.500, 173.500 984.500, 174.033 950 C 174.326 931.025, 174.664 915.399, 174.783 915.276 C 174.902 915.152, 176.328 914.365, 177.950 913.526 C 182.115 911.372, 184.715 911.624, 187.545 914.455 C 190 916.909, 190 916.909, 190 950.976 C 190 985.043, 190 985.043, 209.250 984.772 C 228.500 984.500, 228.500 984.500, 229 965.661 C 229.500 946.822, 229.500 946.822, 232.306 944.411 C 236.060 941.185, 239.502 941.349, 243.077 944.923 C 246 947.846, 246 947.846, 246 966.434 C 246 985.022, 246 985.022, 288.250 984.761 C 330.500 984.500, 330.500 984.500, 331 965.400 C 331.548 944.472, 331.823 943.499, 337.495 942.435 C 341.738 941.639, 344.337 943.083, 346.370 947.367 C 347.680 950.127, 348 954.168, 348 967.923 C 348 985.044, 348 985.044, 366.750 984.772 C 385.500 984.500, 385.500 984.500, 386 951 C 386.275 932.575, 386.866 916.934, 387.313 916.243 C 388.661 914.161, 393.973 911.857, 395.968 912.490 C 396.995 912.816, 398.997 913.997, 400.418 915.114 C 403 917.145, 403 917.145, 403 951.094 C 403 985.043, 403 985.043, 422.250 984.772 C 441.500 984.500, 441.500 984.500, 442 965.283 C 442.554 943.987, 442.736 943.404, 449.155 942.362 C 451.988 941.903, 453.190 942.272, 455.336 944.260 C 458 946.729, 458 946.729, 458 965.875 C 458 985.021, 458 985.021, 500.750 984.761 C 543.500 984.500, 543.500 984.500, 544 965.159 C 544.487 946.326, 544.562 945.769, 546.861 943.909 C 550.149 941.250, 554.567 941.476, 557.545 944.455 C 559.980 946.889, 560 947.065, 560 965.976 C 560 985.043, 560 985.043, 579.250 984.772 C 598.500 984.500, 598.500 984.500, 599 950.902 C 599.538 914.768, 599.518 914.894, 604.893 912.851 C 608.431 911.505, 612.537 913.504, 614.430 917.493 C 615.755 920.287, 616 925.805, 616 952.923 C 616 985.044, 616 985.044, 634.750 984.772 C 653.500 984.500, 653.500 984.500, 654 965.661 C 654.500 946.822, 654.500 946.822, 657.425 944.309 C 659.766 942.297, 661.050 941.909, 663.856 942.364 C 667.747 942.995, 669.952 944.736, 670.490 947.603 C 670.686 948.646, 670.881 957.492, 670.923 967.261 C 671 985.022, 671 985.022, 713.250 984.761 C 755.500 984.500, 755.500 984.500, 756 965.661 C 756.500 946.822, 756.500 946.822, 759.306 944.411 C 763.186 941.077, 766.498 941.327, 770.056 945.223 C 773 948.446, 773 948.446, 773 966.744 C 773 985.043, 773 985.043, 792.250 984.772 C 811.500 984.500, 811.500 984.500, 812 950.500 C 812.275 931.800, 812.881 915.910, 813.347 915.188 C 814.655 913.163, 819.042 911.850, 822.191 912.542 C 827.737 913.760, 828 915.545, 828 951.972 C 828 985.043, 828 985.043, 847.250 984.772 C 866.500 984.500, 866.500 984.500, 867 965.661 C 867.500 946.822, 867.500 946.822, 870.306 944.411 C 874.186 941.077, 877.498 941.327, 881.056 945.223 C 884 948.446, 884 948.446, 884 966.732 C 884 985.018, 884 985.018, 934.250 984.759 C 984.500 984.500, 984.500 984.500, 984.759 934.250 C 985.018 884, 985.018 884, 966.453 884 C 947.887 884, 947.887 884, 944.944 880.777 C 941.325 876.815, 941.229 874.070, 944.571 870.099 C 947.141 867.044, 947.141 867.044, 965.821 866.772 C 984.500 866.500, 984.500 866.500, 984.772 847.250 C 985.043 828, 985.043 828, 950.976 828 C 916.909 828, 916.909 828, 914.455 825.545 C 911.475 822.566, 911.250 818.148, 913.911 814.861 C 915.821 812.500, 915.821 812.500, 950.161 812 C 984.500 811.500, 984.500 811.500, 984.772 792.250 C 985.043 773, 985.043 773, 966.445 773 C 947.846 773, 947.846 773, 944.923 770.077 C 941.349 766.502, 941.185 763.060, 944.411 759.306 C 946.822 756.500, 946.822 756.500, 965.661 756 C 984.500 755.500, 984.500 755.500, 984.761 713.250 C 985.022 671, 985.022 671, 966.122 671 C 944.839 671, 943.432 670.581, 942.367 663.925 C 941.906 661.046, 942.284 659.781, 944.309 657.425 C 946.822 654.500, 946.822 654.500, 965.661 654 C 984.500 653.500, 984.500 653.500, 984.772 634.750 C 985.044 616, 985.044 616, 952.587 616 C 933.535 616, 919.052 615.590, 917.520 615.008 C 914.517 613.866, 912.095 608.956, 912.776 605.393 C 913.032 604.052, 914.373 602.065, 915.756 600.977 C 918.140 599.102, 919.904 599, 950.053 599 C 967.534 599, 982.548 598.727, 983.418 598.393 C 984.783 597.869, 985 595.198, 985 578.893 C 985 560, 985 560, 966.111 560 C 949.603 560, 946.952 559.779, 945.080 558.250 C 941.943 555.686, 941.313 550.071, 943.815 546.977 C 945.794 544.531, 946.058 544.494, 965.159 544 C 984.500 543.500, 984.500 543.500, 984.761 500.750 C 985.021 458, 985.021 458, 965.699 458 C 946.376 458, 946.376 458, 944.093 454.912 C 942.344 452.546, 941.955 451.051, 942.432 448.513 C 943.499 442.821, 944.462 442.548, 965.400 442 C 984.500 441.500, 984.500 441.500, 984.772 422.250 C 985.043 403, 985.043 403, 951.445 403 C 917.846 403, 917.846 403, 914.923 400.077 C 911.876 397.030, 911.287 394.201, 913.023 390.957 C 915.266 386.765, 917.169 386.520, 951.500 386 C 984.500 385.500, 984.500 385.500, 984.772 366.750 C 985.044 348, 985.044 348, 967.569 348 C 957.274 348, 949.150 347.561, 947.797 346.932 C 943.907 345.122, 941.722 341.297, 942.428 337.532 C 943.500 331.819, 944.450 331.548, 965.400 331 C 984.500 330.500, 984.500 330.500, 984.761 288.311 C 985.022 246.121, 985.022 246.121, 965.922 245.811 C 946.823 245.500, 946.823 245.500, 944.411 242.694 C 941.352 239.134, 941.352 235.866, 944.411 232.306 C 946.822 229.500, 946.822 229.500, 965.661 229 C 984.500 228.500, 984.500 228.500, 984.772 209.250 C 985.043 190, 985.043 190, 952.087 190 C 933.640 190, 918.028 189.581, 916.626 189.048 C 912.808 187.596, 911.541 184.474, 912.913 179.895 C 913.541 177.799, 914.605 175.728, 915.278 175.292 C 915.950 174.856, 931.800 174.275, 950.500 174 C 984.500 173.500, 984.500 173.500, 984.771 154.310 C 985.043 135.119, 985.043 135.119, 965.431 134.810 C 946.202 134.506, 945.782 134.454, 943.910 132.139 C 941.083 128.645, 941.468 124.378, 944.923 120.923 C 947.846 118, 947.846 118, 965.954 118 C 979.519 118, 984.183 117.686, 984.542 116.750 C 984.806 116.063, 984.905 96.262, 984.761 72.749 C 984.500 29.999, 984.500 29.999, 507 507.507 M 600.252 600.252 C 336.266 864.238, 355.706 843.860, 361.929 850.083 C 364.858 853.012, 364.858 853.012, 606.893 852.756 C 837.719 852.512, 849.011 852.417, 850.714 850.714 C 852.417 849.011, 852.512 837.719, 852.756 606.893 C 853.012 364.858, 853.012 364.858, 850.083 361.929 C 843.860 355.706, 864.238 336.266, 600.252 600.252 M 612.249 612.251 C 490.012 734.489, 390 834.839, 390 835.251 C 390 835.663, 489.810 836, 611.800 836 C 782.978 836, 833.874 835.726, 834.800 834.800 C 835.726 833.874, 836 782.978, 836 611.800 C 836 489.810, 835.662 390, 835.249 390 C 834.836 390, 734.486 490.013, 612.249 612.251 M 615.749 615.751 C 498.187 733.314, 402 830.064, 402 830.751 C 402 832.543, 829.008 832.592, 830.800 830.800 C 832.594 829.006, 832.543 402, 830.749 402 C 830.061 402, 733.311 498.188, 615.749 615.751" stroke="none" fill="#fbfbfb" fill-rule="evenodd"></path>
  </symbol>
  <symbol xmlns="http://www.w3.org/2000/svg" version="1.1" viewBox="0 0 1000 1000" id="chisel2">
    <path d="M 1.384 2.442 C 1.080 3.234, 0.981 4.618, 1.165 5.515 C 1.431 6.810, 2.106 6.513, 4.437 4.074 C 7.374 1, 7.374 1, 4.656 1 C 3.161 1, 1.688 1.649, 1.384 2.442 M 596.321 2.750 C 597.967 4.396, 605.700 4.516, 726.036 4.761 C 839.289 4.992, 854 5.196, 854 6.530 C 854 7.359, 844.212 15.320, 832.250 24.221 C 810.510 40.397, 810.473 40.432, 752.500 97.625 C 641.884 206.753, 497.327 352.257, 495.103 356.710 C 493.357 360.206, 492.999 362.751, 492.996 371.710 C 492.991 385.721, 491.070 397.193, 486.477 410.634 C 481.983 423.789, 472.329 443.293, 464.271 455.500 C 452.683 473.056, 433.498 496, 430.407 496 C 429.771 496, 420.038 486.883, 408.778 475.740 C 380.928 448.177, 375.011 443.858, 360.391 440.413 C 351.127 438.230, 334.975 438.983, 326.277 442.004 C 314.350 446.146, 302.394 455.657, 295.485 466.500 C 283.277 485.657, 283.726 513.799, 296.532 532.134 C 298.978 535.635, 300.983 539.176, 300.989 540.001 C 300.995 540.827, 240.220 602.252, 165.933 676.501 C 91.646 750.751, 28.031 814.875, 24.565 819 C 21.100 823.125, 15.702 830.438, 12.569 835.250 C 9.437 840.063, 6.455 844, 5.943 844 C 5.371 844, 4.913 748.069, 4.756 595.536 C 4.514 360.433, 4.406 346.977, 2.750 345.321 C 1.083 343.655, 1 356.210, 1 608.986 C 1 754.964, 1.375 873.972, 1.834 873.450 C 2.293 872.927, 3.659 868.675, 4.870 864 C 7.725 852.975, 14.324 839.535, 21.810 829.500 C 25.669 824.326, 77.413 771.906, 168.299 681.098 C 308.820 540.696, 308.820 540.696, 303.886 534.767 C 294.885 523.951, 291.042 513.214, 291.015 498.799 C 290.984 482.894, 295.335 471.864, 306.119 460.512 C 320.076 445.819, 338.285 440.255, 358.500 444.507 C 372.639 447.481, 375.962 449.914, 404.612 478.268 C 430.724 504.110, 430.724 504.110, 438.450 495.805 C 455.391 477.595, 471.589 454.267, 481.502 433.801 C 493.177 409.700, 497.447 393.007, 497.312 372 C 497.231 359.500, 497.231 359.500, 652.866 203.704 C 738.464 118.016, 811.650 45.455, 815.500 42.458 C 819.350 39.461, 831.050 30.623, 841.500 22.817 C 851.950 15.011, 862.678 6.909, 865.340 4.813 C 870.180 1, 870.180 1, 732.376 1 C 601.134 1, 594.655 1.083, 596.321 2.750 M 939.003 61.516 C 997.243 119.775, 999.512 121.914, 999.826 118.846 C 1000.134 115.838, 997.108 112.615, 946.076 61.576 C 916.334 31.830, 892 6.947, 892 6.279 C 892 5.353, 901.452 4.999, 931.965 4.783 C 968.468 4.525, 972.082 4.348, 973.679 2.750 C 975.345 1.083, 973.121 1, 926.967 1 C 878.506 1, 878.506 1, 939.003 61.516 M 850.500 37.645 C 838.400 46.761, 828.380 54.733, 828.232 55.360 C 827.784 57.268, 945.384 174.181, 947.049 173.483 C 947.847 173.148, 956.002 162.890, 965.170 150.687 C 981.840 128.500, 981.840 128.500, 928.174 74.750 C 898.657 45.188, 874.055 21.016, 873.503 21.035 C 872.952 21.055, 862.600 28.529, 850.500 37.645 M 853.951 40.729 C 843.947 48.280, 835.545 55.023, 835.280 55.713 C 834.759 57.069, 944.408 166.500, 946.287 166.500 C 947.626 166.500, 975 130.500, 975 128.739 C 975 127.179, 874.868 27, 873.309 27 C 872.666 27, 863.955 33.178, 853.951 40.729 M 665.749 214.751 C 585.037 295.464, 519 362.178, 519 363.004 C 519 364.965, 637.044 483, 639.004 483 C 640.966 483, 934 189.957, 934 187.996 C 934 186.035, 815.956 68, 813.996 68 C 813.172 68, 746.461 134.038, 665.749 214.751 M 668.750 218.106 C 589.688 297.225, 525 362.444, 525 363.038 C 525 364.552, 637.532 477, 639.047 477 C 640.682 477, 928 189.656, 928 188.021 C 928 186.218, 815.524 73.974, 813.871 74.127 C 813.117 74.198, 747.813 138.988, 668.750 218.106 M 995.407 138 C 993.155 141.025, 987.348 148.900, 982.502 155.500 C 956.759 190.557, 959.400 187.781, 798.098 349.353 C 711.307 436.289, 644.153 502.792, 642.377 503.563 C 640.148 504.532, 636.856 504.753, 630.877 504.334 C 615.797 503.277, 591.807 509.177, 571.205 519.008 C 548.813 529.692, 524.136 546.787, 504.238 565.395 C 497.935 571.290, 497.935 571.290, 523.254 596.895 C 545.004 618.890, 549.104 623.522, 552.340 629.748 C 566.373 656.749, 556.439 690.589, 530.497 704.160 C 520.810 709.228, 512.991 711.294, 503.500 711.294 C 490.503 711.294, 477.602 706.499, 466.695 697.616 C 461.279 693.204, 461.279 693.204, 320.389 834.168 C 237.211 917.391, 176.298 977.564, 171.684 981.069 C 162.052 988.386, 150.341 994.145, 138.500 997.388 C 129.500 999.853, 129.500 999.853, 138.554 999.927 C 147.363 999.998, 147.857 999.876, 156.856 995.411 C 161.942 992.888, 169.310 988.411, 173.228 985.463 C 177.146 982.515, 243.460 917.305, 320.593 840.552 C 397.725 763.798, 461.386 701, 462.063 701 C 462.739 701, 465.783 702.653, 468.826 704.672 C 493.923 721.331, 524.148 718.866, 545.520 698.417 C 552.420 691.815, 556.280 685.612, 559.712 675.610 C 562.151 668.503, 562.495 666.017, 562.495 655.500 C 562.494 641.601, 560.493 634.155, 554.111 624.310 C 549.574 617.310, 535.703 601.961, 518.600 585.015 C 511.670 578.148, 506 572.003, 506 571.359 C 506 568.002, 536.637 543.426, 552.511 534.050 C 574.783 520.895, 590.863 514.478, 611.818 510.380 C 621.855 508.417, 626.055 508.042, 632.084 508.568 C 638.543 509.131, 640.395 508.919, 644.374 507.159 C 648.177 505.477, 676.708 477.426, 795.780 358.304 C 876.476 277.574, 946.238 207.318, 950.806 202.179 C 960.885 190.843, 974.626 173.640, 986.493 157.500 C 991.346 150.900, 996.401 144.319, 997.726 142.875 C 999.582 140.853, 1000.063 139.358, 999.818 136.375 C 999.500 132.500, 999.500 132.500, 995.407 138 M 512.135 395.683 C 505.068 431.947, 484.898 469.038, 452.256 505.797 C 447.715 510.910, 444 515.639, 444 516.306 C 444 518.112, 484.262 558, 486.085 558 C 486.946 558, 488.742 556.827, 490.076 555.393 C 498.603 546.223, 522.408 527.735, 538.856 517.510 C 562.757 502.651, 587.374 492.761, 609.750 489.029 C 613.737 488.364, 617 487.521, 617 487.156 C 617 486.791, 593.921 463.417, 565.713 435.213 C 514.425 383.932, 514.425 383.932, 512.135 395.683 M 516.037 400.250 C 512.934 412.932, 505.046 434.480, 499.452 445.557 C 489.273 465.713, 471.485 491.296, 454.976 509.527 C 451.946 512.872, 450.226 515.570, 450.661 516.295 C 452.205 518.867, 484.558 551.972, 485.542 551.986 C 486.114 551.994, 492.189 547.228, 499.042 541.396 C 527.901 516.832, 555.587 500.475, 583.364 491.577 C 591.139 489.087, 599.413 486.571, 601.750 485.986 C 604.087 485.401, 606 484.376, 606 483.707 C 606 482.124, 519.868 396, 518.284 396 C 517.620 396, 516.609 397.913, 516.037 400.250 M 334.597 461.934 C 322.895 465.788, 313.632 474.624, 309.368 486 C 308.309 488.826, 307.648 493.681, 307.591 499.052 C 307.506 506.997, 307.763 508.133, 311.202 515.052 C 314.736 522.162, 318.665 526.253, 397.702 605.126 C 473.939 681.204, 481.026 688.005, 487.144 690.961 C 502.402 698.332, 519.356 694.879, 531.464 681.935 C 534.036 679.186, 537.346 674.363, 538.820 671.218 C 541.167 666.211, 541.500 664.257, 541.500 655.500 C 541.499 638.101, 547.792 645.539, 452.127 549.876 C 358.183 455.935, 363.933 460.910, 348.608 460.309 C 342.589 460.072, 338.979 460.491, 334.597 461.934 M 338.024 465.603 C 327.495 468.432, 319.005 475.430, 314.638 484.878 C 312.929 488.575, 312.502 491.401, 312.506 499 C 312.509 507.431, 312.815 509.062, 315.222 513.500 C 317.171 517.093, 341.090 541.763, 400.217 601.161 C 493.806 695.179, 487.166 689.500, 503.500 689.500 C 514.434 689.500, 519.823 687.268, 527.596 679.518 C 536.644 670.498, 539.763 658.163, 536.070 646.005 C 533.885 638.811, 533.885 638.811, 491.937 596.155 C 444.695 548.117, 366.897 471.267, 362.813 468.604 C 359.559 466.483, 350.623 464.004, 346.500 464.078 C 344.850 464.107, 341.036 464.794, 338.024 465.603 M 177.350 696.250 C 46.603 827.104, 34.846 839.141, 30.590 846.500 C 17.311 869.461, 14.097 891.445, 20.398 916.221 C 28.798 949.251, 53.267 973.449, 87.500 982.582 C 97.309 985.199, 117.673 985.213, 128 982.609 C 138.933 979.853, 149.329 975.524, 157.403 970.363 C 163.014 966.777, 194.179 936.167, 306.250 824.169 C 384.212 746.256, 448 681.831, 448 681.002 C 448 679.033, 322.958 554, 320.989 554 C 320.161 554, 255.523 618.013, 177.350 696.250 M 221.486 658.250 C 167.580 712.288, 103.892 776.300, 79.955 800.500 C 39.214 841.690, 36.172 845.011, 32.322 852.500 C 25.132 866.489, 22.845 874.803, 22.261 889.073 C 21.149 916.277, 30.035 938.434, 49.377 956.688 C 71.266 977.346, 101.500 985.093, 130.298 977.425 C 133.709 976.517, 141.222 973.513, 146.994 970.750 C 157.488 965.726, 157.488 965.726, 299.744 824.241 C 377.985 746.425, 442 682.087, 442 681.268 C 442 679.390, 322.753 560, 320.878 560 C 320.118 560, 275.392 604.212, 221.486 658.250 M 258.270 676.449 C 250.313 679.991, 249.021 689.187, 255.285 697.689 C 261.020 705.473, 303.034 746.480, 307.710 748.859 C 310.026 750.036, 313.176 750.998, 314.710 750.996 C 318.817 750.991, 323.913 747.452, 325.589 743.442 C 327.801 738.148, 326.047 733.253, 319.060 725.222 C 311.613 716.662, 275.481 681.002, 271.466 678.251 C 267.296 675.393, 262.204 674.698, 258.270 676.449 M 258.048 680.760 C 256.678 681.870, 255.659 684.120, 255.294 686.847 C 254.713 691.173, 254.713 691.173, 282.107 718.526 C 300.807 737.199, 310.417 746.103, 312.390 746.583 C 318.641 748.106, 324.019 743.282, 322.593 737.431 C 322.100 735.404, 313.331 725.940, 294.170 706.750 C 269.725 682.270, 266.093 679, 263.341 679 C 261.625 679, 259.243 679.792, 258.048 680.760 M 184.500 750.403 C 177.727 753.392, 175.279 760.528, 178.595 767.611 C 180.630 771.956, 221.049 813.480, 229.861 820.279 C 234.691 824.005, 235.947 824.500, 240.561 824.500 C 246.502 824.500, 249.383 822.610, 251.667 817.213 C 254.970 809.407, 251.405 804.484, 220.168 773.716 C 195.630 749.547, 191.925 747.125, 184.500 750.403 M 183.333 755.576 C 181.142 757.767, 180.840 758.768, 181.310 762.272 C 181.822 766.095, 183.799 768.323, 208.681 793.130 C 226.892 811.285, 236.428 820.095, 238.390 820.577 C 244.573 822.096, 249.975 817.084, 248.521 811.176 C 247.790 808.204, 197.345 756.829, 192.800 754.427 C 188.865 752.348, 186.243 752.666, 183.333 755.576 M 111.395 824.106 C 104.810 825.964, 101.134 832.493, 103.003 839.011 C 104.428 843.979, 107.891 848.016, 129.429 869.814 C 156.929 897.646, 162.155 901.424, 169.706 898.932 C 177.915 896.223, 180.547 886.801, 175.163 879.400 C 170.868 873.497, 129.511 831.540, 124.174 827.671 C 118.745 823.736, 115.709 822.889, 111.395 824.106 M 110.339 828.909 C 106.741 831.132, 105.524 833.944, 106.479 837.822 C 107.166 840.611, 153.074 887.683, 160.400 893.111 C 162.545 894.700, 165.378 896, 166.695 896 C 170.433 896, 174 891.767, 174 887.332 C 174 883.743, 172.742 882.316, 146.250 855.835 C 129.492 839.084, 117.510 827.871, 116 827.527 C 114.423 827.167, 112.333 827.677, 110.339 828.909 M 1 920.777 C 1 934.541, 13.353 957.449, 29.459 973.556 C 37.519 981.616, 47.980 988.974, 60.645 995.491 C 69.070 999.825, 69.740 999.998, 77.954 999.947 C 86.500 999.894, 86.500 999.894, 78.161 997.429 C 43.562 987.201, 15.273 959.129, 5.469 925.296 C 2.203 914.026, 1 912.810, 1 920.777" stroke="none" fill="#f8ede1" fill-rule="evenodd"></path>
    <path d="M 852.929 14.262 C 843.343 21.557, 830.550 31.078, 824.500 35.421 C 814.845 42.351, 794.159 62.652, 655.362 201.408 C 497.224 359.500, 497.224 359.500, 497.308 372 C 497.450 392.999, 493.180 409.694, 481.502 433.801 C 471.589 454.267, 455.391 477.595, 438.450 495.805 C 430.724 504.110, 430.724 504.110, 404.612 478.268 C 375.962 449.914, 372.639 447.481, 358.500 444.507 C 338.285 440.255, 320.076 445.819, 306.119 460.512 C 295.335 471.864, 290.984 482.894, 291.015 498.799 C 291.042 513.214, 294.885 523.951, 303.886 534.767 C 308.820 540.696, 308.820 540.696, 168.299 681.098 C 77.413 771.906, 25.669 824.326, 21.810 829.500 C 14.463 839.349, 7.768 852.899, 5.009 863.500 C 3.865 867.900, 2.494 872.281, 1.964 873.236 C 0.698 875.517, 0.698 914.298, 1.964 915.564 C 2.494 916.094, 4.071 920.474, 5.469 925.296 C 15.324 959.302, 43.762 987.405, 78.509 997.474 C 86.577 999.813, 88.755 1000, 107.862 999.997 C 126.796 999.995, 129.284 999.785, 138 997.456 C 150.235 994.185, 161.868 988.526, 171.684 981.069 C 176.298 977.564, 237.211 917.391, 320.389 834.168 C 461.279 693.204, 461.279 693.204, 466.695 697.616 C 477.602 706.499, 490.503 711.294, 503.500 711.294 C 512.991 711.294, 520.810 709.228, 530.497 704.160 C 556.439 690.589, 566.373 656.749, 552.340 629.748 C 549.104 623.522, 545.004 618.890, 523.254 596.895 C 497.935 571.290, 497.935 571.290, 504.238 565.395 C 524.136 546.787, 548.813 529.692, 571.205 519.008 C 591.807 509.177, 615.797 503.277, 630.877 504.334 C 636.856 504.753, 640.148 504.532, 642.377 503.563 C 644.153 502.792, 711.307 436.289, 798.098 349.353 C 959.433 187.748, 956.890 190.422, 982.485 155.500 C 987.323 148.900, 993.243 140.912, 995.640 137.749 C 999.368 132.831, 1000 131.308, 1000 127.246 C 1000 122.494, 1000 122.494, 939.247 61.747 C 878.821 1.327, 878.472 1, 874.425 1 C 870.748 1, 868.682 2.275, 852.929 14.262 M 850.500 37.645 C 838.400 46.761, 828.380 54.733, 828.232 55.360 C 827.784 57.268, 945.384 174.181, 947.049 173.483 C 947.847 173.148, 956.002 162.890, 965.170 150.687 C 981.840 128.500, 981.840 128.500, 928.174 74.750 C 898.657 45.188, 874.055 21.016, 873.503 21.035 C 872.952 21.055, 862.600 28.529, 850.500 37.645 M 665.749 214.751 C 585.037 295.464, 519 362.178, 519 363.004 C 519 364.965, 637.044 483, 639.004 483 C 640.966 483, 934 189.957, 934 187.996 C 934 186.035, 815.956 68, 813.996 68 C 813.172 68, 746.461 134.038, 665.749 214.751 M 512.135 395.683 C 505.068 431.947, 484.898 469.038, 452.256 505.797 C 447.715 510.910, 444 515.639, 444 516.306 C 444 518.112, 484.262 558, 486.085 558 C 486.946 558, 488.742 556.827, 490.076 555.393 C 498.603 546.223, 522.408 527.735, 538.856 517.510 C 562.757 502.651, 587.374 492.761, 609.750 489.029 C 613.737 488.364, 617 487.521, 617 487.156 C 617 486.791, 593.921 463.417, 565.713 435.213 C 514.425 383.932, 514.425 383.932, 512.135 395.683 M 334.597 461.934 C 322.895 465.788, 313.632 474.624, 309.368 486 C 308.309 488.826, 307.648 493.681, 307.591 499.052 C 307.506 506.997, 307.763 508.133, 311.202 515.052 C 314.736 522.162, 318.665 526.253, 397.702 605.126 C 473.939 681.204, 481.026 688.005, 487.144 690.961 C 502.402 698.332, 519.356 694.879, 531.464 681.935 C 534.036 679.186, 537.346 674.363, 538.820 671.218 C 541.167 666.211, 541.500 664.257, 541.500 655.500 C 541.499 638.101, 547.792 645.539, 452.127 549.876 C 358.183 455.935, 363.933 460.910, 348.608 460.309 C 342.589 460.072, 338.979 460.491, 334.597 461.934 M 177.350 696.250 C 46.603 827.104, 34.846 839.141, 30.590 846.500 C 17.311 869.461, 14.097 891.445, 20.398 916.221 C 28.798 949.251, 53.267 973.449, 87.500 982.582 C 97.309 985.199, 117.673 985.213, 128 982.609 C 138.933 979.853, 149.329 975.524, 157.403 970.363 C 163.014 966.777, 194.179 936.167, 306.250 824.169 C 384.212 746.256, 448 681.831, 448 681.002 C 448 679.033, 322.958 554, 320.989 554 C 320.161 554, 255.523 618.013, 177.350 696.250 M 258.048 680.760 C 256.678 681.870, 255.659 684.120, 255.294 686.847 C 254.713 691.173, 254.713 691.173, 282.107 718.526 C 300.807 737.199, 310.417 746.103, 312.390 746.583 C 318.641 748.106, 324.019 743.282, 322.593 737.431 C 322.100 735.404, 313.331 725.940, 294.170 706.750 C 269.725 682.270, 266.093 679, 263.341 679 C 261.625 679, 259.243 679.792, 258.048 680.760 M 183.333 755.576 C 181.142 757.767, 180.840 758.768, 181.310 762.272 C 181.822 766.095, 183.799 768.323, 208.681 793.130 C 226.892 811.285, 236.428 820.095, 238.390 820.577 C 244.573 822.096, 249.975 817.084, 248.521 811.176 C 247.790 808.204, 197.345 756.829, 192.800 754.427 C 188.865 752.348, 186.243 752.666, 183.333 755.576 M 110.339 828.909 C 106.741 831.132, 105.524 833.944, 106.479 837.822 C 107.166 840.611, 153.074 887.683, 160.400 893.111 C 162.545 894.700, 165.378 896, 166.695 896 C 170.433 896, 174 891.767, 174 887.332 C 174 883.743, 172.742 882.316, 146.250 855.835 C 129.492 839.084, 117.510 827.871, 116 827.527 C 114.423 827.167, 112.333 827.677, 110.339 828.909" stroke="none" fill="#c4853e" fill-rule="evenodd"></path>
  </symbol>
  <symbol xmlns="http://www.w3.org/2000/svg" version="1.1" viewBox="0 0 1000 1000" id="Log2">
    <path d="M 1.384 2.442 C 1.080 3.234, 0.981 4.618, 1.165 5.515 C 1.431 6.810, 2.106 6.513, 4.437 4.074 C 7.374 1, 7.374 1, 4.656 1 C 3.161 1, 1.688 1.649, 1.384 2.442 M 457.321 2.750 C 458.943 4.371, 462.854 4.500, 510.500 4.500 C 558.146 4.500, 562.057 4.371, 563.679 2.750 C 565.345 1.083, 562.813 1, 510.500 1 C 458.187 1, 455.655 1.083, 457.321 2.750 M 1.032 408.036 C 1.060 587.153, 1.239 611.268, 2.532 609.559 C 3.339 608.491, 4 605.952, 4 603.916 C 4 601.879, 5.305 595.046, 6.900 588.731 C 18.061 544.540, 44.252 510.532, 77 497.711 C 87.371 493.652, 93.633 493, 122.285 493 C 149.203 493, 149.203 493, 139.595 482.895 C 113.541 455.493, 99.909 422.294, 95.840 376.329 C 94.382 359.863, 95.768 338.506, 99.431 321 C 109.159 274.506, 132.919 238.891, 164.500 223.464 C 182.506 214.668, 147.258 215.500, 502 215.500 C 803.567 215.500, 816.765 215.575, 822.942 217.327 C 837.711 221.516, 851.989 230.197, 864.218 242.423 C 909.037 287.231, 920.365 380.136, 888.988 445.564 C 882.306 459.497, 873.706 471.971, 862.942 483.344 C 853.804 493, 853.804 493, 880.314 493 C 916.916 493, 926.119 495.051, 943.546 507.095 C 970.133 525.470, 988.389 556.312, 997.353 598 C 999.826 609.500, 999.826 609.500, 999.913 597.860 C 999.999 586.345, 999.948 586.075, 995.145 572.860 C 988.394 554.281, 984.981 547.163, 977.261 535.567 C 963.913 515.517, 943.881 499.058, 925.259 492.842 C 915.505 489.586, 915.487 489.584, 891.500 489.221 C 878.300 489.021, 867.150 488.517, 866.723 488.102 C 866.295 487.686, 868.918 483.780, 872.551 479.423 C 897.636 449.337, 911 408.756, 911 362.669 C 911 303.464, 889.245 252.613, 853 227.100 C 843.562 220.457, 838.670 217.965, 828 214.367 C 819.500 211.500, 819.500 211.500, 501.500 211.500 C 183.500 211.500, 183.500 211.500, 175 214.367 C 156.417 220.634, 142.962 229.933, 129.231 246 C 82.140 301.103, 77.945 403.553, 120.211 466.267 C 122.349 469.439, 126.776 475.232, 130.049 479.140 C 133.322 483.048, 136 486.865, 136 487.622 C 136 488.751, 131.968 489, 113.660 489 C 87.955 489, 81.769 490.073, 67.721 496.968 C 44.256 508.484, 25.184 530.187, 11.491 560.953 C 9.178 566.152, 6.774 570.575, 6.150 570.783 C 5.308 571.064, 4.950 524.417, 4.758 389.616 C 4.514 218.248, 4.402 207.973, 2.750 206.321 C 1.083 204.655, 1.002 214.260, 1.032 408.036 M 185 233.587 C 171.450 237.172, 155.450 247.660, 145.831 259.262 C 136.311 270.744, 125.804 290.527, 120.141 307.630 C 109.191 340.704, 109.386 384.226, 120.638 418.500 C 131.494 451.569, 150.473 475.679, 174.843 487.358 C 217.641 507.868, 266.814 466.838, 280.616 399.102 C 292.657 340.009, 273.517 274.169, 236.053 245.808 C 220.133 233.756, 201.351 229.260, 185 233.587 M 256.329 241.104 C 261.012 246.123, 267.390 253.766, 270.503 258.089 C 285.663 279.144, 297.635 313.079, 299.597 340.555 C 299.949 345.475, 300.868 350.512, 301.641 351.750 C 303.046 354, 303.046 354, 456.976 354 C 569.897 354, 611.571 354.303, 613.403 355.138 C 618.583 357.498, 618.319 367.026, 613 369.709 C 611.021 370.708, 578.371 370.974, 456.219 370.985 C 333.716 370.997, 301.843 371.257, 301.478 372.250 C 301.225 372.938, 300.128 380.500, 299.039 389.056 C 294.256 426.645, 280.263 457.909, 257.530 481.798 C 252.839 486.728, 249 491.265, 249 491.881 C 249 492.704, 323.174 493, 529.340 493 C 803.111 493, 809.857 492.955, 817.234 491.068 C 836.127 486.236, 851.527 474.242, 865.473 453.498 C 868.513 448.976, 871 444.989, 871 444.638 C 871 444.287, 767.253 444, 640.450 444 C 394.074 444, 405.449 444.218, 403.621 439.455 C 401.700 434.449, 403.591 429.687, 408.128 428.105 C 410.408 427.310, 476.822 427, 644.527 427 C 837.147 427, 877.947 426.769, 878.857 425.673 C 881.634 422.327, 887.149 399.292, 888.955 383.500 C 890.272 371.981, 890.272 353.019, 888.955 341.500 C 887.002 324.423, 880.672 299.505, 877.355 295.839 C 875.771 294.090, 868.419 294.006, 695.264 293.758 C 514.823 293.500, 514.823 293.500, 512.811 291.015 C 511.283 289.128, 510.925 287.593, 511.323 284.628 C 512.373 276.798, 494.471 277.530, 692.036 277.242 C 789.366 277.100, 869 276.700, 869 276.354 C 869 274.307, 856.206 258.521, 848.960 251.626 C 840.397 243.478, 833.047 238.817, 822.275 234.705 C 816.500 232.500, 816.500 232.500, 532.157 232.240 C 247.814 231.979, 247.814 231.979, 256.329 241.104 M 191.500 236.647 C 174.368 239.219, 154.541 253.298, 142.584 271.382 C 119.394 306.451, 111.199 350.934, 119.572 396.287 C 122.851 414.049, 131.436 436.444, 140.169 450.019 C 151.546 467.703, 168.561 481.528, 184.932 486.388 C 191.869 488.447, 204.090 488.455, 211.068 486.404 C 225.639 482.121, 242.880 468.512, 253.804 452.671 C 264.862 436.636, 273.307 415.473, 277.207 394.022 C 280.101 378.106, 280.310 348.132, 277.632 333 C 269.250 285.631, 244.797 249.768, 213.553 239.018 C 207.857 237.058, 196.729 235.862, 191.500 236.647 M 260.582 236.867 C 260.278 237.359, 263.431 241.978, 267.588 247.131 C 287.724 272.090, 300.048 303.039, 303.970 338.500 C 304.689 344.999, 305.441 347.847, 306.674 348.750 C 308.023 349.737, 340.228 350, 459.723 350 C 624.126 350, 615.802 349.716, 619.559 355.449 C 621.879 358.991, 621.761 365.491, 619.315 368.829 C 618.239 370.298, 615.815 372.287, 613.929 373.248 C 610.709 374.890, 601.252 374.997, 458.872 374.998 C 335.785 375, 307.042 375.244, 306.167 376.298 C 305.575 377.012, 304.585 381.850, 303.967 387.048 C 302.301 401.076, 299.378 413.649, 294.416 428.136 C 287.395 448.633, 279.289 463.224, 265.829 479.587 C 262.623 483.485, 260 487.206, 260 487.855 C 260 488.759, 324.503 488.972, 536.250 488.767 C 812.500 488.500, 812.500 488.500, 819 486.159 C 822.575 484.871, 828.200 482.397, 831.500 480.662 C 842.202 475.034, 864.161 451.761, 861.386 448.986 C 860.762 448.362, 779.071 447.921, 633.780 447.756 C 407.147 447.500, 407.147 447.500, 404.323 445.409 C 402.770 444.260, 400.857 441.499, 400.070 439.275 C 398.831 435.768, 398.831 434.731, 400.071 431.473 C 400.858 429.406, 402.772 426.766, 404.324 425.607 C 407.146 423.500, 407.146 423.500, 640.420 423 C 828.909 422.596, 873.991 422.252, 875.248 421.209 C 876.926 419.816, 880.191 408.713, 882.583 396.261 C 887.805 369.081, 885.787 334.422, 877.445 308.016 C 876.066 303.651, 874.390 299.724, 873.719 299.290 C 873.049 298.855, 791.846 298.275, 693.269 298 C 514.038 297.500, 514.038 297.500, 510.769 294.231 C 507.875 291.337, 507.500 290.335, 507.500 285.500 C 507.500 280.665, 507.875 279.663, 510.769 276.769 C 514.038 273.500, 514.038 273.500, 686.519 273.242 C 856.456 272.987, 859 272.955, 859 271.043 C 859 269.977, 856.793 266.452, 854.097 263.212 C 844.621 251.826, 832.113 242.839, 820 238.714 C 813.500 236.500, 813.500 236.500, 537.318 236.236 C 375.614 236.081, 260.906 236.343, 260.582 236.867 M 185.487 272.746 C 165.548 279.851, 151.202 300.423, 145.075 330.698 C 139.648 357.515, 140.828 382.485, 148.703 407.471 C 155.045 427.596, 167.283 443.449, 181.777 450.315 C 187.874 453.203, 189.389 453.500, 198.052 453.500 C 207.082 453.500, 208.020 453.294, 215.228 449.732 C 229.118 442.867, 239.668 429.493, 246.354 410.276 C 251.962 394.159, 253.415 386.087, 253.460 370.821 C 253.500 357.143, 253.500 357.143, 250.627 354.139 C 247.028 350.375, 241.627 349.293, 236.705 351.350 C 231.007 353.731, 229.906 356.449, 228.371 371.916 C 226.135 394.449, 220.515 410.259, 211.203 420.214 C 205.748 426.046, 202.359 428, 197.700 428 C 191.319 428, 181.790 419.088, 176.899 408.547 C 162.442 377.389, 164.712 332.627, 182.025 307.464 C 186.199 301.397, 191.593 297.633, 198.249 296.144 C 206.168 294.371, 209.500 290.613, 209.500 283.454 C 209.500 278.688, 209.114 277.652, 206.280 274.819 C 203.445 271.984, 202.309 271.560, 196.780 271.279 C 192.574 271.065, 188.845 271.549, 185.487 272.746 M 366.325 274.436 C 364.579 275.208, 362.372 277.029, 361.420 278.482 C 359.082 282.049, 359.037 288.880, 361.328 292.377 C 364.839 297.737, 367.415 298.117, 398.002 297.794 C 424.447 297.515, 426 297.394, 428.679 295.409 C 430.230 294.260, 432.143 291.499, 432.930 289.275 C 434.169 285.768, 434.169 284.731, 432.929 281.473 C 432.142 279.406, 430.229 276.766, 428.678 275.607 C 425.985 273.595, 424.585 273.489, 397.679 273.266 C 375.266 273.080, 368.850 273.319, 366.325 274.436 M 187.880 276.327 C 169.401 281.517, 153.999 304.686, 148.544 335.500 C 147.667 340.450, 146.678 350.350, 146.346 357.500 C 144.635 394.302, 158.304 430.719, 178.753 443.841 C 193.126 453.064, 210.616 451.032, 223.803 438.607 C 233.520 429.451, 240.363 417.161, 245.020 400.500 C 249.258 385.340, 251.366 362.421, 248.939 357.886 C 246.379 353.103, 237.039 353.044, 234.638 357.795 C 233.862 359.331, 233.011 365.468, 232.669 372 C 231.449 395.294, 223.286 416.505, 211.645 426.629 C 203.478 433.731, 197.438 434.666, 189.422 430.069 C 180.466 424.932, 175.014 417.139, 169.414 401.470 C 164.968 389.032, 162.999 377.397, 163.006 363.619 C 163.020 336.694, 169.957 313.867, 182.194 300.479 C 187.157 295.048, 191.399 292.756, 198.756 291.531 C 203.668 290.713, 206 288.092, 206 283.388 C 206 278.408, 203.212 275.803, 197.436 275.386 C 194.721 275.190, 190.421 275.614, 187.880 276.327 M 365.967 279.879 C 362.178 283.668, 362.037 287.747, 365.581 291.076 C 368.161 293.500, 368.161 293.500, 397.045 293.500 C 430.043 293.500, 429.500 293.634, 429.500 285.500 C 429.500 277.422, 429.962 277.542, 397.433 277.206 C 368.934 276.912, 368.934 276.912, 365.967 279.879 M 687 351.731 C 682.542 353.984, 679.717 359.290, 680.535 363.873 C 681.406 368.754, 682.979 370.803, 687.566 373.028 C 691.339 374.858, 693.786 374.998, 721.566 374.978 C 748.809 374.958, 751.876 374.785, 755.684 373.057 C 763.694 369.420, 765.346 359.886, 759.056 353.593 C 755.964 350.500, 755.964 350.500, 723.232 350.231 C 693.578 349.986, 690.171 350.127, 687 351.731 M 694 354.717 C 688.895 354.978, 687.124 355.497, 685.750 357.135 C 682.235 361.326, 684.054 367.289, 689.548 369.585 C 694.664 371.722, 749.860 371.641, 754.020 369.490 C 759.484 366.664, 760.664 360.573, 756.545 356.455 C 754.091 354, 754.091 354, 727.295 354.193 C 712.558 354.299, 697.575 354.535, 694 354.717 M 95.870 510.045 C 60.305 515.433, 29.862 554.501, 19.812 607.650 C 17.924 617.633, 17.573 622.888, 17.583 641 C 17.597 665.331, 18.847 673.385, 26.042 695.500 C 32.942 716.709, 41.700 732.344, 53.959 745.339 C 69.963 762.305, 85.422 770, 103.500 770 C 121.414 770, 137.239 762.189, 152.605 745.764 C 168.728 728.528, 181.956 700.046, 187.129 671.431 C 189.757 656.889, 190.316 626.101, 188.170 614 C 183.092 585.355, 173.388 560.296, 161.011 543.865 C 154.260 534.903, 140.754 522.335, 132.917 517.724 C 121.577 511.050, 107.921 508.220, 95.870 510.045 M 155.104 511.750 C 156.467 513.263, 160.782 517.942, 164.693 522.150 C 176.350 534.690, 187.255 552.749, 194.989 572.320 C 197.788 579.402, 198.498 578.975, 203 567.500 C 209.636 550.586, 219.268 535.576, 234.070 519.085 C 243.122 509, 243.122 509, 197.874 509 C 152.626 509, 152.626 509, 155.104 511.750 M 282.500 510.022 C 238.407 518.872, 203.682 580.872, 206.343 646 C 208.112 689.311, 225.986 731.994, 251.137 752.966 C 264.850 764.399, 275.389 769.033, 289.386 769.782 C 300.410 770.372, 307.063 768.994, 317.673 763.924 C 348.997 748.953, 371.935 709.362, 378.051 659.708 C 379.727 646.109, 378.775 620.568, 376.051 606 C 369.487 570.908, 351.013 537.744, 329.547 522.524 C 313.506 511.149, 297.747 506.962, 282.500 510.022 M 349.797 517.409 C 358.887 526.877, 365.280 535.221, 371.321 545.500 C 373.583 549.350, 375.899 552.831, 376.467 553.235 C 377.035 553.639, 457.016 553.976, 554.203 553.985 C 681.545 553.996, 731.587 554.310, 733.343 555.110 C 737.963 557.216, 739.403 564.046, 736.088 568.139 C 734.177 570.500, 734.177 570.500, 559.024 570.758 C 393.054 571.003, 383.899 571.108, 384.418 572.758 C 390.277 591.390, 393.417 606.207, 394.534 620.500 C 394.921 625.450, 395.689 630.063, 396.241 630.750 C 397.022 631.722, 409.309 632, 451.557 632 C 484.604 632, 506.879 632.384, 508.447 632.980 C 509.865 633.519, 511.526 635.059, 512.138 636.403 C 513.710 639.855, 512.399 645.698, 509.707 647.238 C 508.032 648.195, 493.989 648.621, 451.500 649 C 395.500 649.500, 395.500 649.500, 394.817 657.500 C 393.853 668.790, 389.447 690.449, 385.907 701.300 C 382.306 712.336, 374.620 728.721, 368.238 738.967 C 365.681 743.074, 358.965 751.624, 353.315 757.967 C 343.043 769.500, 343.043 769.500, 623.271 769.753 C 801.959 769.914, 905.412 769.653, 908.776 769.032 C 915.368 767.815, 924.342 764.226, 931.720 759.855 C 939.052 755.510, 953.418 741.291, 958.852 733 C 972.034 712.885, 982.111 682.396, 983.724 657.750 C 984.296 649, 984.296 649, 806.195 649 C 677.798 649, 627.414 648.690, 625.657 647.890 C 621.037 645.784, 619.597 638.954, 622.912 634.861 C 624.823 632.500, 624.823 632.500, 804.912 632.242 C 932.192 632.060, 985 631.670, 985 630.912 C 985 630.322, 984.299 624.364, 983.443 617.670 C 978.757 581.030, 966.963 553.470, 947.057 532.638 C 935.340 520.377, 924.394 513.823, 910.303 510.631 C 903.741 509.144, 878.295 509, 622.415 509 C 341.724 509, 341.724 509, 349.797 517.409 M 355 514.556 C 355 515.432, 357.553 519.152, 360.674 522.824 C 363.795 526.496, 368.995 533.550, 372.230 538.500 C 375.464 543.450, 378.847 548.063, 379.747 548.750 C 381.041 549.739, 417.935 550, 556.441 550.002 C 721.102 550.003, 731.708 550.107, 735 551.752 C 742.452 555.474, 743.942 565.807, 737.867 571.627 C 734.869 574.500, 734.869 574.500, 563.400 574.758 C 417.374 574.979, 391.851 575.225, 391.393 576.419 C 391.097 577.191, 392.230 583.287, 393.911 589.965 C 395.591 596.644, 397.467 607.147, 398.079 613.304 C 398.691 619.462, 399.535 625.175, 399.954 626 C 400.613 627.296, 408.128 627.568, 455.294 628 C 509.870 628.500, 509.870 628.500, 512.868 631.373 C 518.942 637.194, 517.451 647.526, 510 651.248 C 506.801 652.846, 501.977 652.997, 453.950 652.998 C 414.413 653, 401.103 653.297, 400.200 654.200 C 399.540 654.860, 399 657.080, 399 659.133 C 399 661.187, 397.861 669.034, 396.469 676.572 C 390.677 707.930, 377.908 736.527, 360.865 756.307 C 357.639 760.051, 355 763.769, 355 764.569 C 355 765.840, 390.011 765.991, 631.250 765.762 C 896.799 765.510, 907.713 765.428, 913 763.654 C 925.029 759.616, 932.069 755.013, 943 744.040 C 955.121 731.873, 961.622 721.774, 968.058 705.111 C 975 687.138, 981.069 658.866, 978.868 654.754 C 977.979 653.092, 968.699 653, 802.715 652.998 C 637.906 652.997, 627.292 652.893, 624 651.248 C 616.555 647.529, 615.002 637.537, 620.945 631.593 C 624.038 628.500, 624.038 628.500, 800.990 628.239 C 967.919 627.993, 977.993 627.880, 978.862 626.239 C 980.031 624.029, 977.865 606.942, 974.923 595.173 C 966.806 562.699, 949.065 535.403, 927.500 522.206 C 924.750 520.523, 918.900 517.876, 914.500 516.323 C 906.500 513.500, 906.500 513.500, 630.750 513.233 C 379.166 512.989, 355 513.105, 355 514.556 M 91 515.527 C 76.664 519.455, 61.998 529.886, 51.845 543.379 C 21.660 583.488, 13.103 643.288, 30.220 694.500 C 37.442 716.109, 46.561 731.538, 60.008 744.898 C 74.551 759.347, 86.959 765.261, 103 765.388 C 118.862 765.514, 131.302 759.958, 144.848 746.694 C 155.012 736.744, 161.023 728.585, 167.358 716.139 C 179.783 691.730, 184.950 669.110, 184.978 639 C 185.018 595.501, 169.596 555.134, 144.019 531.790 C 130.885 519.804, 120.021 514.885, 105.500 514.351 C 99.615 514.135, 94.596 514.542, 91 515.527 M 166 515.079 C 166 515.672, 168.636 519.384, 171.858 523.329 C 179.989 533.282, 187.382 544.844, 192.588 555.750 C 195.017 560.837, 197.392 565, 197.866 565 C 198.341 565, 200.331 561.672, 202.288 557.605 C 207.351 547.087, 215.077 534.936, 223.089 524.889 C 226.890 520.122, 230 515.722, 230 515.111 C 230 514.319, 220.799 514, 198 514 C 175.779 514, 166 514.330, 166 515.079 M 276.651 516.459 C 266.831 519.924, 259.874 524.397, 250.327 533.382 C 232.956 549.730, 220.029 575.401, 213.911 605.701 C 212.283 613.761, 211.610 621.445, 211.258 636 C 210.825 653.911, 210.999 656.652, 213.393 669.638 C 217.443 691.603, 225.815 713.717, 235.869 729 C 241.276 737.219, 254.433 750.476, 262.615 755.949 C 273.178 763.013, 281.250 765.524, 293 765.399 C 309.032 765.228, 321.613 759.264, 336.035 745 C 360.417 720.883, 374.390 682.450, 374.390 639.500 C 374.390 611.536, 369.191 588.353, 357.814 565.588 C 350.360 550.671, 345.170 543.421, 334.809 533.447 C 320.404 519.580, 308.244 513.985, 292.593 514.021 C 285.572 514.037, 281.939 514.593, 276.651 516.459 M 90.667 546.446 C 79.368 551.091, 72.833 556.752, 64.965 568.710 C 36.909 611.342, 42.451 693.453, 75.434 723.835 C 80.923 728.892, 90.268 733.534, 97.853 734.972 C 110.071 737.289, 128.421 729.976, 133.023 720.956 C 135.767 715.577, 135.576 710.838, 132.467 707.143 C 127.299 701.001, 120.903 700.913, 111.554 706.856 C 105.822 710.500, 102.437 710.774, 97.057 708.029 C 91.767 705.330, 87.669 700.129, 82.458 689.500 C 73.155 670.524, 70.122 647.431, 73.524 621.477 C 75.383 607.296, 79.464 594.202, 84.851 585.134 C 90.444 575.720, 95.311 571.588, 103.775 569.067 C 107.573 567.936, 111.449 566.161, 112.388 565.123 C 115.219 561.995, 116.198 556.758, 114.764 552.407 C 112.038 544.136, 102.202 541.703, 90.667 546.446 M 281 545.810 C 273.332 548.365, 268.392 551.729, 261.707 558.950 C 246.513 575.361, 237.717 600.864, 236.298 632.617 C 234.953 662.713, 242.305 694.049, 255.062 712.590 C 260.163 720.005, 269.129 728.244, 275.596 731.462 C 280.630 733.967, 282.700 734.407, 289.644 734.450 C 296.418 734.492, 298.165 734.164, 300.032 732.500 C 303.329 729.561, 305.181 724.484, 304.425 720.454 C 303.783 717.029, 298.237 711.006, 295.715 710.994 C 291.901 710.977, 286.240 708.341, 282.384 704.786 C 259.742 683.916, 254.250 626.227, 271.504 590.500 C 277.242 578.619, 284.664 571.018, 291.252 570.275 C 297.357 569.587, 301.959 571.966, 306.893 578.361 C 315.885 590.017, 321.494 607.248, 323.424 629.145 C 324.496 641.314, 325.085 644.311, 326.908 646.870 C 331.392 653.168, 341.629 653.063, 346.393 646.671 C 348.280 644.138, 348.497 642.520, 348.474 631.171 C 348.436 612.956, 343.675 591.168, 336.746 577.500 C 329.991 564.174, 319.043 552.319, 309.270 547.746 C 300.946 543.850, 289.279 543.051, 281 545.810 M 93.329 549.934 C 62.410 561.065, 44.259 614.649, 53.547 667.374 C 56.576 684.564, 61.830 698.392, 69.846 710.272 C 78.671 723.349, 88.595 729.880, 100.990 730.767 C 119.164 732.068, 136.779 718.358, 129.107 708.884 C 126.114 705.187, 120.634 705.707, 114.727 710.248 C 106.069 716.905, 98.698 716.233, 89.648 707.961 C 83.479 702.323, 76.639 690.188, 73.074 678.558 C 64.587 650.868, 66.764 611.429, 78.045 588.500 C 85.544 573.257, 94.274 565, 102.893 565 C 105.164 565, 107.041 564.113, 109.077 562.077 C 112.870 558.284, 112.870 554.716, 109.077 550.923 C 105.559 547.405, 101.127 547.127, 93.329 549.934 M 283.929 549.305 C 277.077 551.246, 270.848 555.291, 265.203 561.468 C 251.112 576.886, 243.459 597.958, 240.866 628.480 C 239.824 640.748, 239.893 644.376, 241.399 656.416 C 242.351 664.027, 244.225 674.573, 245.565 679.853 C 248.471 691.312, 256.126 707.300, 262.482 715.189 C 270.441 725.068, 281.680 731, 292.438 731 C 296.872 731, 299.928 728.329, 300.649 723.823 C 301.140 720.760, 300.808 719.718, 298.664 717.573 C 297.136 716.045, 294.955 714.996, 293.295 714.990 C 289.431 714.977, 281.040 710.840, 277.853 707.376 C 269.884 698.718, 263.036 683.763, 259.365 667 C 257.879 660.215, 257.516 654.464, 257.564 638.500 C 257.622 619.443, 257.770 617.954, 260.702 606.914 C 264.521 592.536, 269.587 581.985, 276.271 574.485 C 290.073 559, 304.787 562.775, 316.284 584.750 C 323.210 597.989, 326.855 612.333, 327.882 630.386 C 328.588 642.790, 328.718 643.361, 331.363 645.636 C 334.326 648.184, 336.477 648.529, 340.312 647.071 C 345.197 645.214, 346.096 636.929, 343.463 618.051 C 339.774 591.597, 331.852 572.889, 318.753 559.693 C 309.692 550.565, 294.979 546.176, 283.929 549.305 M 794.404 552.029 C 792.151 553.144, 789.685 555.220, 788.924 556.643 C 787.082 560.083, 787.337 566.339, 789.449 569.563 C 792.644 574.438, 795.902 575, 821 575 C 846.098 575, 849.356 574.438, 852.551 569.563 C 854.668 566.332, 854.917 560.081, 853.066 556.624 C 852.300 555.192, 849.804 553.115, 847.521 552.010 C 843.740 550.180, 841.363 550, 820.934 550.001 C 800.412 550.002, 798.151 550.174, 794.404 552.029 M 796.242 555.494 C 790.491 557.994, 789.710 565.054, 794.747 569.016 C 797.103 570.869, 798.848 571, 821.212 571 C 845.154 571, 845.154 571, 848.077 568.077 C 852.542 563.612, 851.696 558.446, 846.020 555.510 C 841.916 553.388, 801.119 553.375, 796.242 555.494 M 139.346 631.322 C 135.721 634.644, 135.721 634.644, 134.315 650.072 C 133.542 658.557, 133.160 666.884, 133.467 668.575 C 135.339 678.891, 151.880 681.131, 156.342 671.673 C 159.807 664.327, 161.195 640.320, 158.484 634.607 C 156.525 630.479, 152.247 628, 147.081 628 C 143.820 628, 142.222 628.686, 139.346 631.322 M 141.618 634.291 C 139.578 636.331, 139.254 637.896, 138.664 648.541 C 138.299 655.119, 137.721 662.378, 137.379 664.674 C 136.842 668.279, 137.108 669.199, 139.333 671.424 C 142.410 674.501, 147.706 674.879, 150.915 672.250 C 153.632 670.024, 155.131 661.366, 155.343 646.671 C 155.492 636.406, 155.377 635.742, 153.139 633.921 C 149.861 631.254, 144.482 631.427, 141.618 634.291 M 1.001 676.550 C 1.002 696.477, 13.595 728.520, 29.848 749.953 C 45.965 771.206, 66.106 785.049, 87.271 789.421 C 94.163 790.845, 134.801 790.999, 500.208 790.992 C 779.222 790.987, 907.525 790.657, 912 789.932 C 937.272 785.837, 959.837 769.815, 977.393 743.500 C 984.667 732.596, 988.808 724.025, 994.862 707.343 C 999.997 693.195, 1000 693.178, 1000 680.926 C 1000 674.183, 999.748 668.919, 999.440 669.227 C 999.131 669.535, 998.449 672.873, 997.924 676.644 C 995.805 691.851, 989.289 712.485, 982.008 727.045 C 976.275 738.507, 967.723 750.267, 958 760.057 C 942.283 775.882, 926.829 783.746, 907 786.007 C 900.290 786.773, 779.013 787.004, 494 786.795 C 90.500 786.500, 90.500 786.500, 83 784.188 C 53.766 775.178, 27.597 747.752, 13.646 711.500 C 9.378 700.411, 5.360 685.758, 4.076 676.605 C 2.583 665.955, 1 665.927, 1.001 676.550 M 466.325 700.451 C 462.210 702.252, 459.768 706.071, 459.641 710.907 C 459.501 716.247, 461.591 719.623, 466.510 722.005 C 470.633 724.001, 472.067 724.026, 566.328 723.765 C 661.962 723.500, 661.962 723.500, 665.231 720.231 C 668.125 717.337, 668.500 716.335, 668.500 711.500 C 668.500 706.665, 668.125 705.663, 665.231 702.769 C 661.962 699.500, 661.962 699.500, 565.731 699.281 C 485.455 699.099, 468.974 699.293, 466.325 700.451 M 774.500 700.399 C 769.630 702.584, 766.759 706.396, 766.643 710.835 C 766.501 716.251, 768.573 719.615, 773.528 722.013 C 777.626 723.998, 779.157 724.040, 836.791 723.773 C 894.672 723.505, 895.911 723.459, 898.677 721.435 C 900.230 720.300, 902.328 717.705, 903.340 715.670 C 904.980 712.371, 905.034 711.517, 903.840 707.823 C 903.097 705.524, 901.243 702.748, 899.677 701.589 C 896.897 699.531, 895.959 699.497, 837.177 699.277 C 788.956 699.097, 776.924 699.312, 774.500 700.399 M 197.423 701.500 C 197.001 702.600, 194.300 708.804, 191.420 715.286 C 182.436 735.513, 174.976 746.769, 160.626 761.750 C 152.724 770, 152.724 770, 197.862 770 C 222.688 770, 243 769.800, 243 769.557 C 243 769.313, 240.467 766.725, 237.372 763.807 C 223.008 750.263, 210.123 730.002, 200.929 706.500 C 198.709 700.826, 198.045 699.879, 197.423 701.500 M 468.030 704.271 C 462 707.343, 461.604 714.562, 467.277 718.036 C 470.434 719.969, 472.444 720.004, 565.714 719.755 C 673.392 719.467, 664.500 720.210, 664.500 711.500 C 664.500 702.790, 673.393 703.532, 565.714 703.257 C 490.809 703.065, 469.973 703.281, 468.030 704.271 M 774.339 704.922 C 768.716 708.374, 768.686 714.618, 774.277 718.027 C 777.384 719.922, 779.609 719.993, 836.144 719.996 C 894.788 720, 894.788 720, 897.894 717.099 C 901.673 713.569, 901.893 710.150, 898.587 706.306 C 896.174 703.500, 896.174 703.500, 836.837 703.241 C 779.615 702.990, 777.387 703.050, 774.339 704.922 M 192.426 724.181 C 186.777 735.468, 179.145 747.350, 172.176 755.706 C 169.329 759.120, 167 762.607, 167 763.456 C 167 764.815, 170.720 765, 198 765 C 223.609 765, 229 764.761, 229 763.627 C 229 762.873, 226.686 759.385, 223.857 755.877 C 216.569 746.839, 210.317 737.054, 204.498 725.578 C 201.731 720.121, 198.932 715.477, 198.278 715.259 C 197.598 715.033, 195.090 718.857, 192.426 724.181" stroke="none" fill="#f0dfcb" fill-rule="evenodd"></path>
    <path d="M 187.539 216.107 C 162.002 219.851, 138.221 237.215, 121.264 264.500 C 106.855 287.683, 98.367 315.438, 95.833 347.649 C 93.259 380.381, 99.866 417.146, 113.383 445.309 C 119.866 458.818, 128.575 471.305, 139.595 482.895 C 149.203 493, 149.203 493, 122.285 493 C 93.633 493, 87.371 493.652, 77 497.711 C 44.252 510.532, 18.061 544.540, 6.900 588.731 C 5.305 595.046, 4 601.865, 4 603.884 C 4 605.903, 3.355 608.476, 2.567 609.601 C 0.468 612.597, 0.463 665.743, 2.561 669.764 C 3.345 671.269, 3.990 673.932, 3.994 675.682 C 4.003 680.377, 9.426 700.588, 13.531 711.228 C 27.650 747.818, 53.674 775.150, 83 784.188 C 90.500 786.500, 90.500 786.500, 494 786.795 C 779.013 787.004, 900.290 786.773, 907 786.007 C 926.829 783.746, 942.283 775.882, 958 760.057 C 975.626 742.309, 987.384 720.814, 994.409 693.497 C 998.758 676.585, 999.272 671.481, 999.686 641.032 C 1000.076 612.359, 1000.017 611.225, 997.483 599.032 C 988.711 556.829, 970.437 525.680, 943.546 507.095 C 926.119 495.051, 916.916 493, 880.314 493 C 853.804 493, 853.804 493, 862.942 483.344 C 897.740 446.576, 912.971 390.732, 904.493 331 C 896.320 273.415, 865.492 230.177, 823.464 217.354 C 817.756 215.613, 804.096 215.528, 505.500 215.384 C 331.801 215.300, 190.858 215.620, 187.539 216.107 M 185 233.587 C 171.450 237.172, 155.450 247.660, 145.831 259.262 C 136.311 270.744, 125.804 290.527, 120.141 307.630 C 109.191 340.704, 109.386 384.226, 120.638 418.500 C 131.494 451.569, 150.473 475.679, 174.843 487.358 C 217.641 507.868, 266.814 466.838, 280.616 399.102 C 292.657 340.009, 273.517 274.169, 236.053 245.808 C 220.133 233.756, 201.351 229.260, 185 233.587 M 256.329 241.104 C 261.012 246.123, 267.390 253.766, 270.503 258.089 C 285.663 279.144, 297.635 313.079, 299.597 340.555 C 299.949 345.475, 300.868 350.512, 301.641 351.750 C 303.046 354, 303.046 354, 456.976 354 C 569.897 354, 611.571 354.303, 613.403 355.138 C 618.583 357.498, 618.319 367.026, 613 369.709 C 611.021 370.708, 578.371 370.974, 456.219 370.985 C 333.716 370.997, 301.843 371.257, 301.478 372.250 C 301.225 372.938, 300.128 380.500, 299.039 389.056 C 294.256 426.645, 280.263 457.909, 257.530 481.798 C 252.839 486.728, 249 491.265, 249 491.881 C 249 492.704, 323.174 493, 529.340 493 C 803.111 493, 809.857 492.955, 817.234 491.068 C 836.127 486.236, 851.527 474.242, 865.473 453.498 C 868.513 448.976, 871 444.989, 871 444.638 C 871 444.287, 767.253 444, 640.450 444 C 394.074 444, 405.449 444.218, 403.621 439.455 C 401.700 434.449, 403.591 429.687, 408.128 428.105 C 410.408 427.310, 476.822 427, 644.527 427 C 837.147 427, 877.947 426.769, 878.857 425.673 C 881.634 422.327, 887.149 399.292, 888.955 383.500 C 890.272 371.981, 890.272 353.019, 888.955 341.500 C 887.002 324.423, 880.672 299.505, 877.355 295.839 C 875.771 294.090, 868.419 294.006, 695.264 293.758 C 514.823 293.500, 514.823 293.500, 512.811 291.015 C 511.283 289.128, 510.925 287.593, 511.323 284.628 C 512.373 276.798, 494.471 277.530, 692.036 277.242 C 789.366 277.100, 869 276.700, 869 276.354 C 869 274.307, 856.206 258.521, 848.960 251.626 C 840.397 243.478, 833.047 238.817, 822.275 234.705 C 816.500 232.500, 816.500 232.500, 532.157 232.240 C 247.814 231.979, 247.814 231.979, 256.329 241.104 M 187.880 276.327 C 169.401 281.517, 153.999 304.686, 148.544 335.500 C 147.667 340.450, 146.678 350.350, 146.346 357.500 C 144.635 394.302, 158.304 430.719, 178.753 443.841 C 193.126 453.064, 210.616 451.032, 223.803 438.607 C 233.520 429.451, 240.363 417.161, 245.020 400.500 C 249.258 385.340, 251.366 362.421, 248.939 357.886 C 246.379 353.103, 237.039 353.044, 234.638 357.795 C 233.862 359.331, 233.011 365.468, 232.669 372 C 231.449 395.294, 223.286 416.505, 211.645 426.629 C 203.478 433.731, 197.438 434.666, 189.422 430.069 C 180.466 424.932, 175.014 417.139, 169.414 401.470 C 164.968 389.032, 162.999 377.397, 163.006 363.619 C 163.020 336.694, 169.957 313.867, 182.194 300.479 C 187.157 295.048, 191.399 292.756, 198.756 291.531 C 203.668 290.713, 206 288.092, 206 283.388 C 206 278.408, 203.212 275.803, 197.436 275.386 C 194.721 275.190, 190.421 275.614, 187.880 276.327 M 365.967 279.879 C 362.178 283.668, 362.037 287.747, 365.581 291.076 C 368.161 293.500, 368.161 293.500, 397.045 293.500 C 430.043 293.500, 429.500 293.634, 429.500 285.500 C 429.500 277.422, 429.962 277.542, 397.433 277.206 C 368.934 276.912, 368.934 276.912, 365.967 279.879 M 694 354.717 C 688.895 354.978, 687.124 355.497, 685.750 357.135 C 682.235 361.326, 684.054 367.289, 689.548 369.585 C 694.664 371.722, 749.860 371.641, 754.020 369.490 C 759.484 366.664, 760.664 360.573, 756.545 356.455 C 754.091 354, 754.091 354, 727.295 354.193 C 712.558 354.299, 697.575 354.535, 694 354.717 M 95.870 510.045 C 60.305 515.433, 29.862 554.501, 19.812 607.650 C 17.924 617.633, 17.573 622.888, 17.583 641 C 17.597 665.331, 18.847 673.385, 26.042 695.500 C 32.942 716.709, 41.700 732.344, 53.959 745.339 C 69.963 762.305, 85.422 770, 103.500 770 C 121.414 770, 137.239 762.189, 152.605 745.764 C 168.728 728.528, 181.956 700.046, 187.129 671.431 C 189.757 656.889, 190.316 626.101, 188.170 614 C 183.092 585.355, 173.388 560.296, 161.011 543.865 C 154.260 534.903, 140.754 522.335, 132.917 517.724 C 121.577 511.050, 107.921 508.220, 95.870 510.045 M 155.104 511.750 C 156.467 513.263, 160.782 517.942, 164.693 522.150 C 176.350 534.690, 187.255 552.749, 194.989 572.320 C 197.788 579.402, 198.498 578.975, 203 567.500 C 209.636 550.586, 219.268 535.576, 234.070 519.085 C 243.122 509, 243.122 509, 197.874 509 C 152.626 509, 152.626 509, 155.104 511.750 M 282.500 510.022 C 238.407 518.872, 203.682 580.872, 206.343 646 C 208.112 689.311, 225.986 731.994, 251.137 752.966 C 264.850 764.399, 275.389 769.033, 289.386 769.782 C 300.410 770.372, 307.063 768.994, 317.673 763.924 C 348.997 748.953, 371.935 709.362, 378.051 659.708 C 379.727 646.109, 378.775 620.568, 376.051 606 C 369.487 570.908, 351.013 537.744, 329.547 522.524 C 313.506 511.149, 297.747 506.962, 282.500 510.022 M 349.797 517.409 C 358.887 526.877, 365.280 535.221, 371.321 545.500 C 373.583 549.350, 375.899 552.831, 376.467 553.235 C 377.035 553.639, 457.016 553.976, 554.203 553.985 C 681.545 553.996, 731.587 554.310, 733.343 555.110 C 737.963 557.216, 739.403 564.046, 736.088 568.139 C 734.177 570.500, 734.177 570.500, 559.024 570.758 C 393.054 571.003, 383.899 571.108, 384.418 572.758 C 390.277 591.390, 393.417 606.207, 394.534 620.500 C 394.921 625.450, 395.689 630.063, 396.241 630.750 C 397.022 631.722, 409.309 632, 451.557 632 C 484.604 632, 506.879 632.384, 508.447 632.980 C 509.865 633.519, 511.526 635.059, 512.138 636.403 C 513.710 639.855, 512.399 645.698, 509.707 647.238 C 508.032 648.195, 493.989 648.621, 451.500 649 C 395.500 649.500, 395.500 649.500, 394.817 657.500 C 393.853 668.790, 389.447 690.449, 385.907 701.300 C 382.306 712.336, 374.620 728.721, 368.238 738.967 C 365.681 743.074, 358.965 751.624, 353.315 757.967 C 343.043 769.500, 343.043 769.500, 623.271 769.753 C 801.959 769.914, 905.412 769.653, 908.776 769.032 C 915.368 767.815, 924.342 764.226, 931.720 759.855 C 939.052 755.510, 953.418 741.291, 958.852 733 C 972.034 712.885, 982.111 682.396, 983.724 657.750 C 984.296 649, 984.296 649, 806.195 649 C 677.798 649, 627.414 648.690, 625.657 647.890 C 621.037 645.784, 619.597 638.954, 622.912 634.861 C 624.823 632.500, 624.823 632.500, 804.912 632.242 C 932.192 632.060, 985 631.670, 985 630.912 C 985 630.322, 984.299 624.364, 983.443 617.670 C 978.757 581.030, 966.963 553.470, 947.057 532.638 C 935.340 520.377, 924.394 513.823, 910.303 510.631 C 903.741 509.144, 878.295 509, 622.415 509 C 341.724 509, 341.724 509, 349.797 517.409 M 93.329 549.934 C 62.410 561.065, 44.259 614.649, 53.547 667.374 C 56.576 684.564, 61.830 698.392, 69.846 710.272 C 78.671 723.349, 88.595 729.880, 100.990 730.767 C 119.164 732.068, 136.779 718.358, 129.107 708.884 C 126.114 705.187, 120.634 705.707, 114.727 710.248 C 106.069 716.905, 98.698 716.233, 89.648 707.961 C 83.479 702.323, 76.639 690.188, 73.074 678.558 C 64.587 650.868, 66.764 611.429, 78.045 588.500 C 85.544 573.257, 94.274 565, 102.893 565 C 105.164 565, 107.041 564.113, 109.077 562.077 C 112.870 558.284, 112.870 554.716, 109.077 550.923 C 105.559 547.405, 101.127 547.127, 93.329 549.934 M 283.929 549.305 C 277.077 551.246, 270.848 555.291, 265.203 561.468 C 251.112 576.886, 243.459 597.958, 240.866 628.480 C 239.824 640.748, 239.893 644.376, 241.399 656.416 C 242.351 664.027, 244.225 674.573, 245.565 679.853 C 248.471 691.312, 256.126 707.300, 262.482 715.189 C 270.441 725.068, 281.680 731, 292.438 731 C 296.872 731, 299.928 728.329, 300.649 723.823 C 301.140 720.760, 300.808 719.718, 298.664 717.573 C 297.136 716.045, 294.955 714.996, 293.295 714.990 C 289.431 714.977, 281.040 710.840, 277.853 707.376 C 269.884 698.718, 263.036 683.763, 259.365 667 C 257.879 660.215, 257.516 654.464, 257.564 638.500 C 257.622 619.443, 257.770 617.954, 260.702 606.914 C 264.521 592.536, 269.587 581.985, 276.271 574.485 C 290.073 559, 304.787 562.775, 316.284 584.750 C 323.210 597.989, 326.855 612.333, 327.882 630.386 C 328.588 642.790, 328.718 643.361, 331.363 645.636 C 334.326 648.184, 336.477 648.529, 340.312 647.071 C 345.197 645.214, 346.096 636.929, 343.463 618.051 C 339.774 591.597, 331.852 572.889, 318.753 559.693 C 309.692 550.565, 294.979 546.176, 283.929 549.305 M 796.242 555.494 C 790.491 557.994, 789.710 565.054, 794.747 569.016 C 797.103 570.869, 798.848 571, 821.212 571 C 845.154 571, 845.154 571, 848.077 568.077 C 852.542 563.612, 851.696 558.446, 846.020 555.510 C 841.916 553.388, 801.119 553.375, 796.242 555.494 M 141.618 634.291 C 139.578 636.331, 139.254 637.896, 138.664 648.541 C 138.299 655.119, 137.721 662.378, 137.379 664.674 C 136.842 668.279, 137.108 669.199, 139.333 671.424 C 142.410 674.501, 147.706 674.879, 150.915 672.250 C 153.632 670.024, 155.131 661.366, 155.343 646.671 C 155.492 636.406, 155.377 635.742, 153.139 633.921 C 149.861 631.254, 144.482 631.427, 141.618 634.291 M 197.423 701.500 C 197.001 702.600, 194.300 708.804, 191.420 715.286 C 182.436 735.513, 174.976 746.769, 160.626 761.750 C 152.724 770, 152.724 770, 197.862 770 C 222.688 770, 243 769.800, 243 769.557 C 243 769.313, 240.467 766.725, 237.372 763.807 C 223.008 750.263, 210.123 730.002, 200.929 706.500 C 198.709 700.826, 198.045 699.879, 197.423 701.500 M 468.030 704.271 C 462 707.343, 461.604 714.562, 467.277 718.036 C 470.434 719.969, 472.444 720.004, 565.714 719.755 C 673.392 719.467, 664.500 720.210, 664.500 711.500 C 664.500 702.790, 673.393 703.532, 565.714 703.257 C 490.809 703.065, 469.973 703.281, 468.030 704.271 M 774.339 704.922 C 768.716 708.374, 768.686 714.618, 774.277 718.027 C 777.384 719.922, 779.609 719.993, 836.144 719.996 C 894.788 720, 894.788 720, 897.894 717.099 C 901.673 713.569, 901.893 710.150, 898.587 706.306 C 896.174 703.500, 896.174 703.500, 836.837 703.241 C 779.615 702.990, 777.387 703.050, 774.339 704.922" stroke="none" fill="#c4843d" fill-rule="evenodd"></path>
  </symbol>
</svg>